<svg width="479" height="236" viewBox="0 0 479 236" fill="none" xmlns="http://www.w3.org/2000/svg">
<g clip-path="url(#clip0_1_3)">
<path d="M479.073 235.894H478.747H478.422H478.096H477.771H477.445H477.12H476.794H476.469H476.143H475.818H475.492H475.167H474.841H474.516H474.19H473.865H473.539H473.214H472.888H472.563H472.237H471.912H471.586H471.26H470.935H470.609H470.284H469.958H469.633H469.307H468.982H468.656H468.331H468.005H467.68H467.354H467.029H466.703H466.378H466.052H465.727H465.401H465.076H464.75H464.425H464.099H463.774H463.448H463.122H462.797H462.471H462.146H461.82H461.495H461.169H460.844H460.518H460.193H459.867H459.542H459.216H458.891H458.565H458.24H457.914H457.589H457.263H456.938H456.612H456.287H455.961H455.635H455.31H454.984H454.659H454.333H454.008H453.682H453.357H453.031H452.706H452.38H452.055H451.729H451.404H451.078H450.753H450.427H450.102H449.776H449.451H449.125H448.8H448.474H448.149H447.823H447.497H447.172H446.846H446.521H446.195H445.87H445.544H445.219H444.893H444.568H444.242H443.917H443.591H443.266H442.94H442.615H442.289H441.964H441.638H441.313H440.987H440.662H440.336H440.01H439.685H439.359H439.034H438.708H438.383H438.057H437.732H437.406H437.081H436.755H436.43H436.104H435.779H435.453H435.128H434.802H434.477H434.151H433.826H433.5H433.175H432.849H432.524H432.198H431.872H431.547H431.221H430.896H430.57H430.245H429.919H429.594H429.268H428.943H428.617H428.292H427.966H427.641H427.315H426.99H426.664H426.339H426.013H425.688H425.362H425.037H424.711H424.385H424.06H423.734H423.409H423.083H422.758H422.432H422.107H421.781H421.456H421.13H420.805H420.479H420.154H419.828H419.503H419.177H418.852H418.526H418.201H417.875H417.55H417.224H416.899H416.573H416.247H415.922H415.596H415.271H414.945H414.62H414.294H413.969H413.643H413.318H412.992H412.667H412.341H412.016H411.69H411.365H411.039H410.714H410.388H410.063H409.737H409.412H409.086H408.76H408.435H408.109H407.784H407.458H407.133H406.807H406.482H406.156H405.831H405.505H405.18H404.854H404.529H404.203H403.878H403.552H403.227H402.901H402.576H402.25H401.925H401.599H401.274H400.948H400.622H400.297H399.971H399.646H399.32H398.995H398.669H398.344H398.018H397.693H397.367H397.042H396.716H396.391H396.065H395.74H395.414H395.089H394.763H394.438H394.112H393.787H393.461H393.135H392.81H392.484H392.159H391.833H391.508H391.182H390.857H390.531H390.206H389.88H389.555H389.229H388.904H388.578H388.253H387.927H387.602H387.276H386.951H386.625H386.3H385.974H385.649H385.323H384.997H384.672H384.346H384.021H383.695H383.37H383.044H382.719H382.393H382.068H381.742H381.417H381.091H380.766H380.44H380.115H379.789H379.464H379.138H378.813H378.487H378.162H377.836H377.51H377.185H376.859H376.534H376.208H375.883H375.557H375.232H374.906H374.581H374.255H373.93H373.604H373.279H372.953H372.628H372.302H371.977H371.651H371.326H371H370.675H370.349H370.024H369.698H369.372H369.047H368.721H368.396H368.07H367.745H367.419H367.094H366.768H366.443H366.117H365.792H365.466H365.141H364.815H364.49H364.164H363.839H363.513H363.188H362.862H362.537H362.211H361.885H361.56H361.234H360.909H360.583H360.258H359.932H359.607H359.281H358.956H358.63H358.305H357.979H357.654H357.328H357.003H356.677H356.352H356.026H355.701H355.375H355.05H354.724H354.399H354.073H353.747H353.422H353.096H352.771H352.445H352.12H351.794H351.469H351.143H350.818H350.492H350.167H349.841H349.516H349.19H348.865H348.539H348.214H347.888H347.563H347.237H346.912H346.586H346.26H345.935H345.609H345.284H344.958H344.633H344.307H343.982H343.656H343.331H343.005H342.68H342.354H342.029H341.703H341.378H341.052H340.727H340.401H340.076H339.75H339.425H339.099H338.774H338.448H338.122H337.797H337.471H337.146H336.82H336.495H336.169H335.844H335.518H335.193H334.867H334.542H334.216H333.891H333.565H333.24H332.914H332.589H332.263H331.938H331.612H331.287H330.961H330.635H330.31H329.984H329.659H329.333H329.008H328.682H328.357H328.031H327.706H327.38H327.055H326.729H326.404H326.078H325.753H325.427H325.102H324.776H324.451H324.125H323.8H323.474H323.148H322.823H322.497H322.172H321.846H321.521H321.195H320.87H320.544H320.219H319.893H319.568H319.242H318.917H318.591H318.266H317.94H317.615H317.289H316.964H316.638H316.313H315.987H315.662H315.336H315.01H314.685H314.359H314.034H313.708H313.383H313.057H312.732H312.406H312.081H311.755H311.43H311.104H310.779H310.453H310.128H309.802H309.477H309.151H308.826H308.5H308.175H307.849H307.523H307.198H306.872H306.547H306.221H305.896H305.57H305.245H304.919H304.594H304.268H303.943H303.617H303.292H302.966H302.641H302.315H301.99H301.664H301.339H301.013H300.688H300.362H300.037H299.711H299.385H299.06H298.734H298.409H298.083H297.758H297.432H297.107H296.781H296.456H296.13H295.805H295.479H295.154H294.828H294.503H294.177H293.852H293.526H293.201H292.875H292.55H292.224H291.898H291.573H291.247H290.922H290.596H290.271H289.945H289.62H289.294H288.969H288.643H288.318H287.992H287.667H287.341H287.016H286.69H286.365H286.039H285.714H285.388H285.063H284.737H284.412H284.086H283.76H283.435H283.109H282.784H282.458H282.133H281.807H281.482H281.156H280.831H280.505H280.18H279.854H279.529H279.203H278.878H278.552H278.227H277.901H277.576H277.25H276.925H276.599H276.273H275.948H275.622H275.297H274.971H274.646H274.32H273.995H273.669H273.344H273.018H272.693H272.367H272.042H271.716H271.391H271.065H270.74H270.414H270.089H269.763H269.438H269.112H268.787H268.461H268.135H267.81H267.484H267.159H266.833H266.508H266.182H265.857H265.531H265.206H264.88H264.555H264.229H263.904H263.578H263.253H262.927H262.602H262.276H261.951H261.625H261.3H260.974H260.648H260.323H259.997H259.672H259.346H259.021H258.695H258.37H258.044H257.719H257.393H257.068H256.742H256.417H256.091H255.766H255.44H255.115H254.789H254.464H254.138H253.813H253.487H253.162H252.836H252.51H252.185H251.859H251.534H251.208H250.883H250.557H250.232H249.906H249.581H249.255H248.93H248.604H248.279H247.953H247.628H247.302H246.977H246.651H246.326H246H245.675H245.349H245.023H244.698H244.372H244.047H243.721H243.396H243.07H242.745H242.419H242.094H241.768H241.443H241.117H240.792H240.466H240.141H239.815H239.49H239.164H238.839H238.513H238.188H237.862H237.537H237.211H236.885H236.56H236.234H235.909H235.583H235.258H234.932H234.607H234.281H233.956H233.63H233.305H232.979H232.654H232.328H232.003H231.677H231.352H231.026H230.701H230.375H230.05H229.724H229.398H229.073H228.747H228.422H228.096H227.771H227.445H227.12H226.794H226.469H226.143H225.818H225.492H225.167H224.841H224.516H224.19H223.865H223.539H223.214H222.888H222.563H222.237H221.912H221.586H221.26H220.935H220.609H220.284H219.958H219.633H219.307H218.982H218.656H218.331H218.005H217.68H217.354H217.029H216.703H216.378H216.052H215.727H215.401H215.076H214.75H214.425H214.099H213.773H213.448H213.122H212.797H212.471H212.146H211.82H211.495H211.169H210.844H210.518H210.193H209.867H209.542H209.216H208.891H208.565H208.24H207.914H207.589H207.263H206.938H206.612H206.287H205.961H205.635H205.31H204.984H204.659H204.333H204.008H203.682H203.357H203.031H202.706H202.38H202.055H201.729H201.404H201.078H200.753H200.427H200.102H199.776H199.451H199.125H198.8H198.474H198.148H197.823H197.497H197.172H196.846H196.521H196.195H195.87H195.544H195.219H194.893H194.568H194.242H193.917H193.591H193.266H192.94H192.615H192.289H191.964H191.638H191.313H190.987H190.662H190.336H190.01H189.685H189.359H189.034H188.708H188.383H188.057H187.732H187.406H187.081H186.755H186.43H186.104H185.779H185.453H185.128H184.802H184.477H184.151H183.826H183.5H183.175H182.849H182.523H182.198H181.872H181.547H181.221H180.896H180.57H180.245H179.919H179.594H179.268H178.943H178.617H178.292H177.966H177.641H177.315H176.99H176.664H176.339H176.013H175.688H175.362H175.037H174.711H174.385H174.06H173.734H173.409H173.083H172.758H172.432H172.107H171.781H171.456H171.13H170.805H170.479H170.154H169.828H169.503H169.177H168.852H168.526H168.201H167.875H167.55H167.224H166.898H166.573H166.247H165.922H165.596H165.271H164.945H164.62H164.294H163.969H163.643H163.318H162.992H162.667H162.341H162.016H161.69H161.365H161.039H160.714H160.388H160.063H159.737H159.412H159.086H158.76H158.435H158.109H157.784H157.458H157.133H156.807H156.482H156.156H155.831H155.505H155.18H154.854H154.529H154.203H153.878H153.552H153.227H152.901H152.576H152.25H151.925H151.599H151.273H150.948H150.622H150.297H149.971H149.646H149.32H148.995H148.669H148.344H148.018H147.693H147.367H147.042H146.716H146.391H146.065H145.74H145.414H145.089H144.763H144.438H144.112H143.787H143.461H143.135H142.81H142.484H142.159H141.833H141.508H141.182H140.857H140.531H140.206H139.88H139.555H139.229H138.904H138.578H138.253H137.927H137.602H137.276H136.951H136.625H136.3H135.974H135.648H135.323H134.997H134.672H134.346H134.021H133.695H133.37H133.044H132.719H132.393H132.068H131.742H131.417H131.091H130.766H130.44H130.115H129.789H129.464H129.138H128.813H128.487H128.162H127.836H127.51H127.185H126.859H126.534H126.208H125.883H125.557H125.232H124.906H124.581H124.255H123.93H123.604H123.279H122.953H122.628H122.302H121.977H121.651H121.326H121H120.675H120.349H120.023H119.698H119.372H119.047H118.721H118.396H118.07H117.745H117.419H117.094H116.768H116.443H116.117H115.792H115.466H115.141H114.815H114.49H114.164H113.839H113.513H113.188H112.862H112.537H112.211H111.885H111.56H111.234H110.909H110.583H110.258H109.932H109.607H109.281H108.956H108.63H108.305H107.979H107.654H107.328H107.003H106.677H106.352H106.026H105.701H105.375H105.05H104.724H104.398H104.073H103.747H103.422H103.096H102.771H102.445H102.12H101.794H101.469H101.143H100.818H100.492H100.167H99.8412H99.5157H99.1902H98.8646H98.5391H98.2136H97.8881H97.5625H97.237H96.9115H96.586H96.2605H95.9349H95.6094H95.2839H94.9584H94.6329H94.3073H93.9818H93.6563H93.3308H93.0053H92.6797H92.3542H92.0287H91.7032H91.3777H91.0521H90.7266H90.4011H90.0756H89.75H89.4245H89.099H88.7735H88.448H88.1224H87.7969H87.4714H87.1459H86.8204H86.4948H86.1693H85.8438H85.5183H85.1928H84.8672H84.5417H84.2162H83.8907H83.5652H83.2396H82.9141H82.5886H82.2631H81.9376H81.612H81.2865H80.961H80.6355H80.3099H79.9844H79.6589H79.3334H79.0079H78.6823H78.3568H78.0313H77.7058H77.3803H77.0547H76.7292H76.4037H76.0782H75.7527H75.4271H75.1016H74.7761H74.4506H74.1251H73.7995H73.474H73.1485H72.823H72.4974H72.1719H71.8464H71.5209H71.1954H70.8698H70.5443H70.2188H69.8933H69.5678H69.2422H68.9167H68.5912H68.2657H67.9402H67.6146H67.2891H66.9636H66.6381H66.3126H65.987H65.6615H65.336H65.0105H64.6849H64.3594H64.0339H63.7084H63.3829H63.0573H62.7318H62.4063H62.0808H61.7553H61.4297H61.1042H60.7787H60.4532H60.1277H59.8021H59.4766H59.1511H58.8256H58.5001H58.1745H57.849H57.5235H57.198H56.8724H56.5469H56.2214H55.8959H55.5704H55.2448H54.9193H54.5938H54.2683H53.9428H53.6172H53.2917H52.9662H52.6407H52.3152H51.9896H51.6641H51.3386H51.0131H50.6876H50.362H50.0365H49.711H49.3855H49.0599H48.7344H48.4089H48.0834H47.7579H47.4323H47.1068H46.7813H46.4558H46.1303H45.8047H45.4792H45.1537H44.8282H44.5027H44.1771H43.8516H43.5261H43.2006H42.8751H42.5495H42.224H41.8985H41.573H41.2474H40.9219H40.5964H40.2709H39.9454H39.6198H39.2943H38.9688H38.6433H38.3178H37.9922H37.6667H37.3412H37.0157H36.6902H36.3646H36.0391H35.7136H35.3881H35.0626H34.737H34.4115H34.086H33.7605H33.4349H33.1094H32.7839H32.4584H32.1329H31.8073H31.4818H31.1563H30.8308H30.5053H30.1797H29.8542H29.5287H29.2032H28.8777H28.5521H28.2266H27.9011H27.5756H27.2501H26.9245H26.599H26.2735H25.948H25.6224H25.2969H24.9714H24.6459H24.3204H23.9948H23.6693H23.3438H23.0183H22.6928H22.3672H22.0417H21.7162H21.3907H21.0652H20.7396H20.4141H20.0886H19.7631H19.4375H19.112H18.7865H18.461H18.1355H17.8099H17.4844H17.1589H16.8334H16.5079H16.1823H15.8568H15.5313H15.2058H14.8803H14.5547H14.2292H13.9037H13.5782H13.2527H12.9271H12.6016H12.2761H11.9506H11.625H11.2995H10.974H10.6485H10.323H9.99744H9.67192H9.3464H9.02088H8.69536H8.36984H8.04432H7.7188H7.39328H7.06776H6.74224H6.41672H6.09119H5.76567H5.44015H5.11463H4.78911H4.46359H4.13807H3.81255H3.48703H3.16151H2.83599H2.51047H2.18494H1.85942H1.5339H1.20838H0.882861H0.55734H0.23182H-0.0937013L-0.418213 235.635V235.375V235.115V234.855V234.596V234.336V234.076V233.816V233.557V233.297V233.037V232.777V232.518V232.258V231.998V231.738V231.479V231.219V230.959V230.699V230.439V230.18V229.92V229.66V229.4V229.141V228.881V228.621V228.361V228.102V227.842V227.582V227.322V227.063V226.803V226.543V226.283V226.023V225.764V225.504V225.244V224.984V224.725V224.465V224.205V223.945V223.686V223.426V223.166V222.906V222.646V222.387V222.127V221.867V221.607V221.348V221.088V220.828V220.568V220.309V220.049V219.789V219.529V219.27V219.01V218.75V218.49V218.23V217.971V217.711V217.451V217.191V216.932V216.672V216.412V216.152V215.893V215.633V215.373V215.113V214.854V214.594V214.334V214.074V213.814V213.555V213.295V213.035V212.775V212.516V212.256V211.996V211.736V211.477V211.217V210.957V210.697V210.438V210.178V209.918V209.658V209.398V209.139V208.879V208.619V208.359V208.1V207.84V207.58V207.32V207.061V206.801V206.541V206.281V206.021V205.762V205.502V205.242V204.982V204.723V204.463V204.203V203.943V203.684V203.424V203.164V202.904V202.645V202.385V202.125V201.865V201.605V201.346V201.086V200.826V200.566V200.307V200.047V199.787V199.527V199.268V199.008V198.748V198.488V198.229V197.969V197.709V197.449V197.189V196.93V196.67V196.41V196.15V195.891V195.631V195.371V195.111V194.852V194.592V194.332V194.072L-0.0937013 193.813L-0.092692 193.813L-0.0937013 193.812L-0.418213 193.553V193.293V193.033V192.773V192.514V192.254V191.994V191.734V191.475V191.215V190.955V190.695V190.436V190.176V189.916V189.656V189.396V189.137V188.877V188.617V188.357V188.098V187.838V187.578V187.318V187.059V186.799V186.539V186.279V186.02V185.76V185.5V185.24V184.98V184.721V184.461V184.201V183.941V183.682V183.422V183.162V182.902V182.643V182.383V182.123V181.863V181.604V181.344V181.084V180.824V180.564V180.305V180.045V179.785V179.525V179.266V179.006V178.746V178.486V178.227V177.967V177.707V177.447V177.188V176.928V176.668V176.408V176.148V175.889V175.629V175.369V175.109V174.85V174.59V174.33V174.07V173.811V173.551V173.291V173.031V172.771V172.512V172.252V171.992V171.732V171.473V171.213V170.953V170.693V170.434V170.174V169.914V169.654V169.395V169.135V168.875V168.615V168.355V168.096V167.836L-0.0937013 167.577L-0.092692 167.576L-0.0937013 167.575L-0.418213 167.316V167.057L-0.0937013 166.798L-0.092692 166.797L-0.0937013 166.796L-0.418213 166.537V166.277V166.018V165.758V165.498V165.238L-0.0937013 164.979L-0.092692 164.979L-0.0937013 164.978L-0.418213 164.719L-0.0937013 164.46L-0.092692 164.459L-0.0937013 164.458L-0.418213 164.199V163.939V163.68V163.42V163.16V162.9V162.641V162.381V162.121V161.861V161.602V161.342V161.082V160.822V160.563V160.303V160.043V159.783V159.523V159.264V159.004V158.744V158.484V158.225V157.965V157.705V157.445V157.186V156.926V156.666V156.406V156.146V155.887V155.627V155.367V155.107V154.848V154.588V154.328V154.068V153.809V153.549V153.289V153.029V152.77V152.51V152.25V151.99V151.73V151.471V151.211V150.951V150.691V150.432V150.172V149.912V149.652V149.393V149.133V148.873V148.613V148.354V148.094V147.834V147.574V147.314V147.055V146.795V146.535V146.275V146.016V145.756V145.496V145.236V144.977V144.717L-0.0937013 144.458L-0.092692 144.457V144.197V143.938L-0.0937013 143.937L-0.418213 143.678V143.418V143.158V142.898V142.639V142.379V142.119V141.859V141.6V141.34V141.08V140.82V140.561V140.301V140.041L-0.0937013 139.782L-0.092692 139.781L-0.0937013 139.78L-0.418213 139.521V139.262V139.002V138.742V138.482V138.223V137.963V137.703L-0.0937013 137.444L-0.092692 137.443L-0.0937013 137.443L-0.418213 137.184V136.924V136.664V136.404V136.145V135.885V135.625V135.365V135.105V134.846V134.586V134.326V134.066V133.807V133.547V133.287V133.027V132.768V132.508V132.248V131.988V131.729V131.469V131.209V130.949V130.689V130.43V130.17V129.91V129.65V129.391V129.131V128.871V128.611V128.352V128.092V127.832V127.572V127.313V127.053V126.793V126.533V126.273V126.014V125.754V125.494V125.234V124.975V124.715V124.455V124.195V123.936V123.676V123.416V123.156L-0.0937013 122.897L-0.092692 122.896V122.637V122.377L-0.0937013 122.376L-0.418213 122.117L-0.0937013 121.858L-0.092692 121.857L-0.0937013 121.857L-0.418213 121.598L-0.0937013 121.339L-0.092692 121.338V121.078L-0.0937013 121.077L-0.418213 120.818V120.559V120.299V120.039V119.779V119.52V119.26V119V118.74L-0.0937013 118.481L-0.092692 118.48L-0.0937013 118.48L-0.418213 118.221V117.961L-0.0937013 117.702L-0.092692 117.701V117.441V117.182V116.922V116.662V116.402V116.143V115.883L-0.0937013 115.882L-0.418213 115.623V115.363L-0.0937013 115.104L-0.092692 115.104V114.844L-0.0937013 114.843L-0.418213 114.584V114.324V114.064V113.805V113.545V113.285V113.025V112.766L-0.0937013 112.507L-0.092692 112.506V112.246V111.986V111.727V111.467L-0.0937013 111.466L-0.418213 111.207L-0.0937013 110.948L-0.092692 110.947V110.688V110.428V110.168V109.908V109.648V109.389V109.129V108.869L-0.0937013 108.868L-0.418213 108.609L-0.0937013 108.35L-0.092692 108.35L-0.0937013 108.349L-0.418213 108.09V107.83V107.57V107.311V107.051V106.791L-0.0937013 106.532L-0.092692 106.531L-0.0937013 106.53L-0.418213 106.271V106.012V105.752V105.492V105.232V104.973V104.713V104.453L-0.0937013 104.194L-0.092692 104.193V103.934V103.674V103.414V103.154V102.895V102.635V102.375V102.115V101.855V101.596V101.336V101.076V100.816V100.557V100.297V100.037V99.7773V99.5176V99.2578V98.998V98.7383V98.4785V98.2188V97.959V97.6992V97.4395V97.1797V96.9199V96.6602V96.4004V96.1406V95.8809V95.6211V95.3613V95.1016V94.8418V94.582V94.3223V94.0625V93.8027V93.543V93.2832V93.0234V92.7637V92.5039V92.2441V91.9844V91.7246V91.4648V91.2051V90.9453V90.6855V90.4258V90.166V89.9063V89.6465V89.3867V89.127V88.8672V88.6074V88.3477V88.0879V87.8281V87.5684V87.3086V87.0488V86.7891V86.5293L-0.0937013 86.5285L-0.418213 86.2695L-0.0937013 86.0106L-0.092692 86.0098V85.75V85.4902V85.2305L-0.0937013 85.2297L-0.418213 84.9707L-0.0937013 84.7117L-0.092692 84.7109L-0.0937013 84.7101L-0.418213 84.4512V84.1914V83.9316V83.6719V83.4121V83.1523L-0.0937013 82.8934L-0.092692 82.8926L-0.0937013 82.8918L-0.418213 82.6328V82.373V82.1133V81.8535L-0.0937013 81.5946L-0.092692 81.5938V81.334L-0.0937013 81.3332L-0.418213 81.0742V80.8145V80.5547V80.2949V80.0352V79.7754V79.5156V79.2559V78.9961L-0.0937013 78.7371L-0.092692 78.7363L-0.0937013 78.7355L-0.418213 78.4766V78.2168V77.957V77.6973L-0.0937013 77.4383L-0.092692 77.4375L-0.0937013 77.4367L-0.418213 77.1777V76.918V76.6582V76.3984V76.1387V75.8789V75.6191V75.3594V75.0996L-0.0937013 74.8407L-0.092692 74.8398V74.5801L-0.0937013 74.5793L-0.418213 74.3203L-0.0937013 74.0614L-0.092692 74.0605L-0.0937013 74.0597L-0.418213 73.8008V73.541V73.2813L-0.0937013 73.0223L-0.092692 73.0215V72.7617L-0.0937013 72.7609L-0.418213 72.502L-0.0937013 72.243L-0.092692 72.2422V71.9824L-0.0937013 71.9816L-0.418213 71.7227V71.4629L-0.0937013 71.2039L-0.092692 71.2031L-0.0937013 71.2023L-0.418213 70.9434L-0.0937013 70.6844L-0.092692 70.6836L-0.0937013 70.6828L-0.418213 70.4238V70.1641L-0.0937013 69.9051L-0.092692 69.9043V69.6445V69.3848V69.125L-0.0937013 69.1242L-0.418213 68.8652V68.6055V68.3457V68.0859V67.8262V67.5664V67.3066V67.0469V66.7871L-0.0937013 66.5282L-0.092692 66.5273L-0.0937013 66.5265L-0.418213 66.2676V66.0078V65.7481V65.4883V65.2285V64.9688V64.709L-0.0937013 64.45L-0.092692 64.4492L-0.0937013 64.4484L-0.418213 64.1895V63.9297V63.6699V63.4102V63.1504V62.8906V62.6309V62.3711V62.1113V61.8516V61.5918V61.332V61.0723V60.8125V60.5527V60.293V60.0332V59.7734V59.5137V59.2539V58.9941V58.7344V58.4746V58.2148V57.9551V57.6953V57.4356V57.1758V56.916V56.6563V56.3965V56.1367V55.877V55.6172V55.3574V55.0977V54.8379V54.5781V54.3184V54.0586V53.7988V53.5391V53.2793V53.0195V52.7598V52.5L-0.0937013 52.241L-0.092692 52.2402L-0.0937013 52.2394L-0.418213 51.9805V51.7207V51.4609V51.2012V50.9414V50.6816V50.4219V50.1621V49.9023V49.6426V49.3828L-0.0937013 49.1239L-0.092692 49.1231L-0.0937013 49.1222L-0.418213 48.8633V48.6035V48.3438V48.084V47.8242V47.5645V47.3047V47.0449V46.7852V46.5254V46.2656V46.0059V45.7461V45.4863V45.2266V44.9668V44.707V44.4473V44.1875V43.9277V43.668V43.4082V43.1484V42.8887V42.6289V42.3691V42.1094V41.8496V41.5898V41.3301V41.0703V40.8106V40.5508V40.291V40.0313V39.7715V39.5117V39.252V38.9922V38.7324V38.4727V38.2129V37.9531V37.6934V37.4336V37.1738V36.9141V36.6543V36.3945V36.1348V35.875V35.6152V35.3555V35.0957V34.8359V34.5762V34.3164V34.0566V33.7969V33.5371V33.2773V33.0176V32.7578V32.4981V32.2383V31.9785V31.7188V31.459V31.1992V30.9395V30.6797V30.4199V30.1602V29.9004V29.6406V29.3809V29.1211V28.8613V28.6016V28.3418V28.082V27.8223V27.5625V27.3027V27.043V26.7832V26.5234V26.2637V26.0039V25.7441V25.4844V25.2246V24.9648V24.7051V24.4453V24.1856V23.9258V23.666V23.4063V23.1465V22.8867V22.627V22.3672V22.1074V21.8477V21.5879V21.3281V21.0684V20.8086V20.5488V20.2891V20.0293V19.7695V19.5098V19.25V18.9902V18.7305V18.4707V18.2109V17.9512V17.6914V17.4316V17.1719V16.9121V16.6523V16.3926V16.1328V15.873V15.6133V15.3535V15.0938V14.834V14.5742V14.3145V14.0547V13.7949V13.5352V13.2754V13.0156V12.7559V12.4961V12.2363V11.9766V11.7168V11.457V11.1973V10.9375V10.6777V10.418V10.1582V9.89844V9.63867V9.37891V9.11914V8.85938V8.59961V8.33985V8.08008V7.82032V7.56055V7.30078V7.04102V6.78125V6.52149V6.26172V6.00196V5.74219V5.48242V5.22266V4.96289V4.70313V4.44336V4.1836V3.92383V3.66407V3.4043V3.14453V2.88477V2.625V2.36524V2.10547V1.84571V1.58594V1.32617V1.06641V0.806644V0.546878L-0.0937013 0.287918L-0.092692 0.287112L0.23182 0.0281525H0.55734H0.882861H1.20838H1.5339H1.85942H2.18494H2.51047H2.83599H3.16151H3.48703H3.81255H4.13807H4.46359H4.78911H5.11463H5.44015H5.76567H6.09119H6.41672H6.74224H7.06776H7.39328H7.7188H8.04432H8.36984H8.69536H9.02088H9.3464H9.67192H9.99744H10.323H10.6485H10.974H11.2995H11.625H11.9506H12.2761H12.6016H12.9271H13.2527H13.5782H13.9037H14.2292H14.5547H14.8803H15.2058H15.5313H15.8568H16.1823H16.5079H16.8334H17.1589H17.4844H17.8099H18.1355H18.461H18.7865H19.112H19.4375H19.7631H20.0886H20.4141H20.7396H21.0652H21.3907H21.7162H22.0417H22.3672H22.6928H23.0183H23.3438H23.6693H23.9948H24.3204H24.6459H24.9714H25.2969H25.6224H25.948H26.2735H26.599H26.9245H27.2501H27.5756H27.9011H28.2266H28.5521H28.8777H29.2032H29.5287H29.8542H30.1797H30.5053H30.8308H31.1563H31.4818H31.8073H32.1329H32.4584H32.7839H33.1094H33.4349H33.7605H34.086H34.4115H34.737H35.0626H35.3881H35.7136H36.0391H36.3646H36.6902H37.0157H37.3412H37.6667H37.9922H38.3178H38.6433H38.9688H39.2943H39.6198H39.9454H40.2709H40.5964H40.9219H41.2474H41.573H41.8985H42.224H42.5495H42.8751H43.2006H43.5261H43.8516H44.1771H44.5027H44.8282H45.1537H45.4792H45.8047H46.1303H46.4558H46.7813H47.1068H47.4323H47.7579H48.0834H48.4089H48.7344H49.0599H49.3855H49.711H50.0365H50.362H50.6876H51.0131H51.3386H51.6641H51.9896H52.3152H52.6407H52.9662H53.2917H53.6172H53.9428H54.2683H54.5938H54.9193H55.2448H55.5704H55.8959H56.2214H56.5469H56.8724H57.198H57.5235H57.849H58.1745H58.5001H58.8256H59.1511H59.4766H59.8021H60.1277H60.4532H60.7787H61.1042H61.4297H61.7553H62.0808H62.4063H62.7318H63.0573H63.3829H63.7084H64.0339H64.3594H64.6849H65.0105H65.336H65.6615H65.987H66.3126H66.6381H66.9636H67.2891H67.6146H67.9402H68.2657H68.5912H68.9167H69.2422H69.5678H69.8933H70.2188H70.5443H70.8698H71.1954H71.5209H71.8464H72.1719H72.4974H72.823H73.1485H73.474H73.7995H74.1251H74.4506H74.7761H75.1016H75.4271H75.7527H76.0782H76.4037H76.7292H77.0547H77.3803H77.7058H78.0313H78.3568H78.6823H79.0079H79.3334H79.6589H79.9844H80.3099H80.6355H80.961H81.2865H81.612H81.9376H82.2631H82.5886H82.9141H83.2396H83.5652H83.8907H84.2162H84.5417H84.8672H85.1928H85.5183H85.8438H86.1693H86.4948H86.8204H87.1459H87.4714H87.7969H88.1224H88.448H88.7735H89.099H89.4245H89.75H90.0756H90.4011H90.7266H91.0521H91.3777H91.7032H92.0287H92.3542H92.6797H93.0053H93.3308H93.6563H93.9818H94.3073H94.6329H94.9584H95.2839H95.6094H95.9349H96.2605H96.586H96.9115H97.237H97.5625H97.8881H98.2136H98.5391H98.8646H99.1902H99.5157H99.8412H100.167H100.492H100.818H101.143H101.469H101.794H102.12H102.445H102.771H103.096H103.422H103.747H104.073H104.398H104.724H105.05H105.375H105.701H106.026H106.352H106.677H107.003H107.328H107.654H107.979H108.305H108.63H108.956H109.281H109.607H109.932H110.258H110.583H110.909H111.234H111.56H111.885H112.211H112.537H112.862H113.188H113.513H113.839H114.164H114.49H114.815H115.141H115.466H115.792H116.117H116.443H116.768H117.094H117.419H117.745H118.07H118.396H118.721H119.047H119.372H119.698H120.023H120.349H120.675H121H121.326H121.651H121.977H122.302H122.628H122.953H123.279H123.604H123.93H124.255H124.581H124.906H125.232H125.557H125.883H126.208H126.534H126.859H127.185H127.51H127.836H128.162H128.487H128.813H129.138H129.464H129.789H130.115H130.44H130.766H131.091H131.417H131.742H132.068H132.393H132.719H133.044H133.37H133.695H134.021H134.346H134.672H134.997H135.323H135.648H135.974H136.3H136.625H136.951H137.276H137.602H137.927H138.253H138.578H138.904H139.229H139.555H139.88H140.206H140.531H140.857H141.182H141.508H141.833H142.159H142.484H142.81H143.135H143.461H143.787H144.112H144.438H144.763H145.089H145.414H145.74H146.065H146.391H146.716H147.042H147.367H147.693H148.018H148.344H148.669H148.995H149.32H149.646H149.971H150.297H150.622H150.948H151.273H151.599H151.925H152.25H152.576H152.901H153.227H153.552H153.878H154.203H154.529H154.854H155.18H155.505H155.831H156.156H156.482H156.807H157.133H157.458H157.784H158.109H158.435H158.76H159.086H159.412H159.737H160.063H160.388H160.714H161.039H161.365H161.69H162.016H162.341H162.667H162.992H163.318H163.643H163.969H164.294H164.62H164.945H165.271H165.596H165.922H166.247H166.573H166.898H167.224H167.55H167.875H168.201H168.526H168.852H169.177H169.503H169.828H170.154H170.479H170.805H171.13H171.456H171.781H172.107H172.432H172.758H173.083H173.409H173.734H174.06H174.385H174.711H175.037H175.362H175.688H176.013H176.339H176.664H176.99H177.315H177.641H177.966H178.292H178.617H178.943H179.268H179.594H179.919H180.245H180.57H180.896H181.221H181.547H181.872H182.198H182.523H182.849H183.175H183.5H183.826H184.151H184.477H184.802H185.128H185.453H185.779H186.104H186.43H186.755H187.081H187.406H187.732H188.057H188.383H188.708H189.034H189.359H189.685H190.01H190.336H190.662H190.987H191.313H191.638H191.964H192.289H192.615H192.94H193.266H193.591H193.917H194.242H194.568H194.893H195.219H195.544H195.87H196.195H196.521H196.846H197.172H197.497H197.823H198.148H198.474H198.8H199.125H199.451H199.776H200.102H200.427H200.753H201.078H201.404H201.729H202.055H202.38H202.706H203.031H203.357H203.682H204.008H204.333H204.659H204.984H205.31H205.635H205.961H206.287H206.612H206.938H207.263H207.589H207.914H208.24H208.565H208.891H209.216H209.542H209.867H210.193H210.518H210.844H211.169H211.495H211.82H212.146H212.471H212.797H213.122H213.448H213.773H214.099H214.425H214.75H215.076H215.401H215.727H216.052H216.378H216.703H217.029H217.354H217.68H218.005H218.331H218.656H218.982H219.307H219.633H219.958H220.284H220.609H220.935H221.26H221.586H221.912H222.237H222.563H222.888H223.214H223.539H223.865H224.19H224.516H224.841H225.167H225.492H225.818H226.143H226.469H226.794H227.12H227.445H227.771H228.096H228.422H228.747H229.073H229.398H229.724H230.05H230.375H230.701H231.026H231.352H231.677H232.003H232.328H232.654H232.979H233.305H233.63H233.956H234.281H234.607H234.932H235.258H235.583H235.909H236.234H236.56H236.885H237.211H237.537H237.862H238.188H238.513H238.839H239.164H239.49H239.815H240.141H240.466H240.792H241.117H241.443H241.768H242.094H242.419H242.745H243.07H243.396H243.721H244.047H244.372H244.698H245.023H245.349H245.675H246H246.326H246.651H246.977H247.302H247.628H247.953H248.279H248.604H248.93H249.255H249.581H249.906H250.232H250.557H250.883H251.208H251.534H251.859H252.185H252.51H252.836H253.162H253.487H253.813H254.138H254.464H254.789H255.115H255.44H255.766H256.091H256.417H256.742H257.068H257.393H257.719H258.044H258.37H258.695H259.021H259.346H259.672H259.997H260.323H260.648H260.974H261.3H261.625H261.951H262.276H262.602H262.927H263.253H263.578H263.904H264.229H264.555H264.88H265.206H265.531H265.857H266.182H266.508H266.833H267.159H267.484H267.81H268.135H268.461H268.787H269.112H269.438H269.763H270.089H270.414H270.74H271.065H271.391H271.716H272.042H272.367H272.693H273.018H273.344H273.669H273.995H274.32H274.646H274.971H275.297H275.622H275.948H276.273H276.599H276.925H277.25H277.576H277.901H278.227H278.552H278.878H279.203H279.529H279.854H280.18H280.505H280.831H281.156H281.482H281.807H282.133H282.458H282.784H283.109H283.435H283.76H284.086H284.412H284.737H285.063H285.388H285.714H286.039H286.365H286.69H287.016H287.341H287.667H287.992H288.318H288.643H288.969H289.294H289.62H289.945H290.271H290.596H290.922H291.247H291.573H291.898H292.224H292.55H292.875H293.201H293.526H293.852H294.177H294.503H294.828H295.154H295.479H295.805H296.13H296.456H296.781H297.107H297.432H297.758H298.083H298.409H298.734H299.06H299.385H299.711H300.037H300.362H300.688H301.013H301.339H301.664H301.99H302.315H302.641H302.966H303.292H303.617H303.943H304.268H304.594H304.919H305.245H305.57H305.896H306.221H306.547H306.872H307.198H307.523H307.849H308.175H308.5H308.826H309.151H309.477H309.802H310.128H310.453H310.779H311.104H311.43H311.755H312.081H312.406H312.732H313.057H313.383H313.708H314.034H314.359H314.685H315.01H315.336H315.662H315.987H316.313H316.638H316.964H317.289H317.615H317.94H318.266H318.591H318.917H319.242H319.568H319.893H320.219H320.544H320.87H321.195H321.521H321.846H322.172H322.497H322.823H323.148H323.474H323.8H324.125H324.451H324.776H325.102H325.427H325.753H326.078H326.404H326.729H327.055H327.38H327.706H328.031H328.357H328.682H329.008H329.333H329.659H329.984H330.31H330.635H330.961H331.287H331.612H331.938H332.263H332.589H332.914H333.24H333.565H333.891H334.216H334.542H334.867H335.193H335.518H335.844H336.169H336.495H336.82H337.146H337.471H337.797H338.122H338.448H338.774H339.099H339.425H339.75H340.076H340.401H340.727H341.052H341.378H341.703H342.029H342.354H342.68H343.005H343.331H343.656H343.982H344.307H344.633H344.958H345.284H345.609H345.935H346.26H346.586H346.912H347.237H347.563H347.888H348.214H348.539H348.865H349.19H349.516H349.841H350.167H350.492H350.818H351.143H351.469H351.794H352.12H352.445H352.771H353.096H353.422H353.747H354.073H354.399H354.724H355.05H355.375H355.701H356.026H356.352H356.677H357.003H357.328H357.654H357.979H358.305H358.63H358.956H359.281H359.607H359.932H360.258H360.583H360.909H361.234H361.56H361.885H362.211H362.537H362.862H363.188H363.513H363.839H364.164H364.49H364.815H365.141H365.466H365.792H366.117H366.443H366.768H367.094H367.419H367.745H368.07H368.396H368.721H369.047H369.372H369.698H370.024H370.349H370.675H371H371.326H371.651H371.977H372.302H372.628H372.953H373.279H373.604H373.93H374.255H374.581H374.906H375.232H375.557H375.883H376.208H376.534H376.859H377.185H377.51H377.836H378.162H378.487H378.813H379.138H379.464H379.789H380.115H380.44H380.766H381.091H381.417H381.742H382.068H382.393H382.719H383.044H383.37H383.695H384.021H384.346H384.672H384.997H385.323H385.649H385.974H386.3H386.625H386.951H387.276H387.602H387.927H388.253H388.578H388.904H389.229H389.555H389.88H390.206H390.531H390.857H391.182H391.508H391.833H392.159H392.484H392.81H393.135H393.461H393.787H394.112H394.438H394.763H395.089H395.414H395.74H396.065H396.391H396.716H397.042H397.367H397.693H398.018H398.344H398.669H398.995H399.32H399.646H399.971H400.297H400.622H400.948H401.274H401.599H401.925H402.25H402.576H402.901H403.227H403.552H403.878H404.203H404.529H404.854H405.18H405.505H405.831H406.156H406.482H406.807H407.133H407.458H407.784H408.109H408.435H408.76H409.086H409.412H409.737H410.063H410.388H410.714H411.039H411.365H411.69H412.016H412.341H412.667H412.992H413.318H413.643H413.969H414.294H414.62H414.945H415.271H415.596H415.922H416.247H416.573H416.899H417.224H417.55H417.875H418.201H418.526H418.852H419.177H419.503H419.828H420.154H420.479H420.805H421.13H421.456H421.781H422.107H422.432H422.758H423.083H423.409H423.734H424.06H424.385H424.711H425.037H425.362H425.688H426.013H426.339H426.664H426.99H427.315H427.641H427.966H428.292H428.617H428.943H429.268H429.594H429.919H430.245H430.57H430.896H431.221H431.547H431.872H432.198H432.524H432.849H433.175H433.5H433.826H434.151H434.477H434.802H435.128H435.453H435.779H436.104H436.43H436.755H437.081H437.406H437.732H438.057H438.383H438.708H439.034H439.359H439.685H440.01H440.336H440.662H440.987H441.313H441.638H441.964H442.289H442.615H442.94H443.266H443.591H443.917H444.242H444.568H444.893H445.219H445.544H445.87H446.195H446.521H446.846H447.172H447.497H447.823H448.149H448.474H448.8H449.125H449.451H449.776H450.102H450.427H450.753H451.078H451.404H451.729H452.055H452.38H452.706H453.031H453.357H453.682H454.008H454.333H454.659H454.984H455.31H455.635H455.961H456.287H456.612H456.938H457.263H457.589H457.914H458.24H458.565H458.891H459.216H459.542H459.867H460.193H460.518H460.844H461.169H461.495H461.82H462.146H462.471H462.797H463.122H463.448H463.774H464.099H464.425H464.75H465.076H465.401H465.727H466.052H466.378H466.703H467.029H467.354H467.68H468.005H468.331H468.656H468.982H469.307H469.633H469.958H470.284H470.609H470.935H471.26H471.586H471.912H472.237H472.563H472.888H473.214H473.539H473.865H474.19H474.516H474.841H475.167H475.492H475.818H476.143H476.469H476.794H477.12H477.445H477.771H478.096H478.422H478.747H479.073L479.398 0.287112V0.546878V0.806644V1.06641V1.32617V1.58594V1.84571V2.10547V2.36524V2.625V2.88477V3.14453V3.4043V3.66407V3.92383V4.1836V4.44336V4.70313V4.96289V5.22266V5.48242V5.74219V6.00196V6.26172V6.52149V6.78125V7.04102V7.30078V7.56055V7.82032V8.08008V8.33985V8.59961V8.85938V9.11914V9.37891V9.63867V9.89844V10.1582V10.418V10.6777V10.9375V11.1973V11.457V11.7168V11.9766V12.2363V12.4961V12.7559V13.0156V13.2754V13.5352V13.7949V14.0547V14.3145V14.5742V14.834V15.0938V15.3535V15.6133V15.873V16.1328V16.3926V16.6523V16.9121V17.1719V17.4316V17.6914V17.9512V18.2109V18.4707V18.7305V18.9902V19.25V19.5098V19.7695V20.0293V20.2891V20.5488V20.8086V21.0684V21.3281V21.5879V21.8477V22.1074V22.3672V22.627V22.8867V23.1465V23.4063V23.666V23.9258V24.1856V24.4453V24.7051V24.9648V25.2246V25.4844V25.7441V26.0039V26.2637V26.5234V26.7832V27.043V27.3027V27.5625V27.8223V28.082V28.3418V28.6016V28.8613V29.1211V29.3809V29.6406V29.9004V30.1602V30.4199V30.6797V30.9395V31.1992V31.459V31.7188V31.9785V32.2383V32.4981V32.7578V33.0176V33.2773V33.5371V33.7969V34.0566V34.3164V34.5762V34.8359V35.0957V35.3555V35.6152V35.875V36.1348V36.3945V36.6543V36.9141V37.1738V37.4336V37.6934V37.9531V38.2129V38.4727V38.7324V38.9922V39.252V39.5117V39.7715V40.0313V40.291V40.5508V40.8106V41.0703V41.3301V41.5898V41.8496V42.1094V42.3691V42.6289V42.8887V43.1484V43.4082V43.668V43.9277V44.1875V44.4473V44.707V44.9668V45.2266V45.4863V45.7461V46.0059V46.2656V46.5254V46.7852V47.0449V47.3047V47.5645V47.8242V48.084V48.3438V48.6035V48.8633V49.1231V49.3828V49.6426V49.9023V50.1621V50.4219V50.6816V50.9414V51.2012V51.4609V51.7207V51.9805V52.2402V52.5V52.7598V53.0195V53.2793V53.5391V53.7988V54.0586V54.3184V54.5781V54.8379V55.0977V55.3574V55.6172V55.877V56.1367V56.3965V56.6563V56.916V57.1758V57.4356V57.6953V57.9551V58.2148V58.4746V58.7344V58.9941V59.2539V59.5137V59.7734V60.0332V60.293V60.5527V60.8125V61.0723V61.332V61.5918V61.8516V62.1113V62.3711V62.6309V62.8906V63.1504V63.4102V63.6699V63.9297V64.1895V64.4492V64.709V64.9688V65.2285V65.4883V65.7481V66.0078V66.2676V66.5273V66.7871V67.0469V67.3066V67.5664V67.8262V68.0859V68.3457V68.6055V68.8652V69.125V69.3848V69.6445V69.9043V70.1641V70.4238V70.6836V70.9434V71.2031V71.4629V71.7227V71.9824V72.2422V72.502V72.7617V73.0215V73.2813V73.541V73.8008V74.0605V74.3203V74.5801V74.8398V75.0996V75.3594V75.6191V75.8789V76.1387V76.3984V76.6582V76.918V77.1777V77.4375V77.6973V77.957V78.2168V78.4766V78.7363V78.9961V79.2559V79.5156V79.7754V80.0352V80.2949V80.5547V80.8145V81.0742V81.334V81.5938V81.8535V82.1133V82.373V82.6328V82.8926V83.1523V83.4121V83.6719V83.9316V84.1914V84.4512V84.7109V84.9707V85.2305V85.4902V85.75V86.0098V86.2695V86.5293V86.7891V87.0488V87.3086V87.5684V87.8281V88.0879V88.3477V88.6074V88.8672V89.127V89.3867V89.6465V89.9063V90.166V90.4258V90.6855V90.9453V91.2051V91.4648V91.7246V91.9844V92.2441V92.5039V92.7637V93.0234V93.2832V93.543V93.8027V94.0625V94.3223V94.582V94.8418V95.1016V95.3613V95.6211V95.8809V96.1406V96.4004V96.6602V96.9199V97.1797V97.4395V97.6992V97.959V98.2188V98.4785V98.7383V98.998V99.2578V99.5176V99.7773V100.037V100.297V100.557V100.816V101.076V101.336V101.596V101.855V102.115V102.375V102.635V102.895V103.154V103.414V103.674V103.934V104.193V104.453V104.713V104.973V105.232V105.492V105.752V106.012V106.271V106.531V106.791V107.051V107.311V107.57V107.83V108.09V108.35V108.609V108.869V109.129V109.389V109.648V109.908V110.168V110.428V110.688V110.947V111.207V111.467V111.727V111.986V112.246V112.506V112.766V113.025V113.285V113.545V113.805V114.064V114.324V114.584V114.844V115.104V115.363V115.623V115.883V116.143V116.402V116.662V116.922V117.182V117.441V117.701V117.961V118.221V118.48V118.74V119V119.26V119.52V119.779V120.039V120.299V120.559V120.818V121.078V121.338V121.598V121.857V122.117V122.377V122.637V122.896V123.156V123.416V123.676V123.936V124.195V124.455V124.715V124.975V125.234V125.494V125.754V126.014V126.273V126.533V126.793V127.053V127.313V127.572V127.832V128.092V128.352V128.611V128.871V129.131V129.391V129.65V129.91V130.17V130.43V130.689V130.949V131.209V131.469V131.729V131.988V132.248V132.508V132.768V133.027V133.287V133.547V133.807V134.066V134.326V134.586V134.846V135.105V135.365V135.625V135.885V136.145V136.404V136.664V136.924V137.184V137.443V137.703V137.963V138.223V138.482V138.742V139.002V139.262V139.521V139.781V140.041V140.301V140.561V140.82V141.08V141.34V141.6V141.859V142.119V142.379V142.639V142.898V143.158V143.418V143.678V143.938V144.197V144.457V144.717V144.977V145.236V145.496V145.756V146.016V146.275V146.535V146.795V147.055V147.314V147.574V147.834V148.094V148.354V148.613V148.873V149.133V149.393V149.652V149.912V150.172V150.432V150.691V150.951V151.211V151.471V151.73V151.99V152.25V152.51V152.77V153.029V153.289V153.549V153.809V154.068V154.328V154.588V154.848V155.107V155.367V155.627V155.887V156.146V156.406V156.666V156.926V157.186V157.445V157.705V157.965V158.225V158.484V158.744V159.004V159.264V159.523V159.783V160.043V160.303V160.563V160.822V161.082V161.342V161.602V161.861V162.121V162.381V162.641V162.9V163.16V163.42V163.68V163.939V164.199V164.459V164.719V164.979V165.238V165.498V165.758V166.018V166.277V166.537V166.797V167.057V167.316V167.576V167.836V168.096V168.355V168.615V168.875V169.135V169.395V169.654V169.914V170.174V170.434V170.693V170.953V171.213V171.473V171.732V171.992V172.252V172.512V172.771V173.031V173.291V173.551V173.811V174.07V174.33V174.59V174.85V175.109V175.369V175.629V175.889V176.148V176.408V176.668V176.928V177.188V177.447V177.707V177.967V178.227V178.486V178.746V179.006V179.266V179.525V179.785V180.045V180.305V180.564V180.824V181.084V181.344V181.604V181.863V182.123V182.383V182.643V182.902V183.162V183.422V183.682V183.941V184.201V184.461V184.721V184.98V185.24V185.5V185.76V186.02V186.279V186.539V186.799V187.059V187.318V187.578V187.838V188.098V188.357V188.617V188.877V189.137V189.396V189.656V189.916V190.176V190.436V190.695V190.955V191.215V191.475V191.734V191.994V192.254V192.514V192.773V193.033V193.293V193.553V193.813V194.072V194.332V194.592V194.852V195.111V195.371V195.631V195.891V196.15V196.41V196.67V196.93V197.189V197.449V197.709V197.969V198.229V198.488V198.748V199.008V199.268V199.527V199.787V200.047V200.307V200.566V200.826V201.086V201.346V201.605V201.865V202.125V202.385V202.645V202.904V203.164V203.424V203.684V203.943V204.203V204.463V204.723V204.982V205.242V205.502V205.762V206.021V206.281V206.541V206.801V207.061V207.32V207.58V207.84V208.1V208.359V208.619V208.879V209.139V209.398V209.658V209.918V210.178V210.438V210.697V210.957V211.217V211.477V211.736V211.996V212.256V212.516V212.775V213.035V213.295V213.555V213.814V214.074V214.334V214.594V214.854V215.113V215.373V215.633V215.893V216.152V216.412V216.672V216.932V217.191V217.451V217.711V217.971V218.23V218.49V218.75V219.01V219.27V219.529V219.789V220.049V220.309V220.568V220.828V221.088V221.348V221.607V221.867V222.127V222.387V222.646V222.906V223.166V223.426V223.686V223.945V224.205V224.465V224.725V224.984V225.244V225.504V225.764V226.023V226.283V226.543V226.803V227.063V227.322V227.582V227.842V228.102V228.361V228.621V228.881V229.141V229.4V229.66V229.92V230.18V230.439V230.699V230.959V231.219V231.479V231.738V231.998V232.258V232.518V232.777V233.037V233.297V233.557V233.816V234.076V234.336V234.596V234.855V235.115V235.375V235.635L479.073 235.894Z" stroke="black"/>
<path d="M241.118 146.795L241.443 146.536H241.768H242.094H242.419H242.745H243.07H243.396H243.721H244.047H244.372L244.373 146.535L244.698 146.276H245.023H245.349H245.674H246H246.326L246.327 146.275L246.651 146.016H246.977H247.302H247.628L247.629 146.016L247.953 145.757H248.279H248.604L248.605 145.756L248.93 145.497H249.255H249.581H249.906L249.907 145.496L250.232 145.237H250.557L250.558 145.236L250.883 144.977H251.208H251.534L251.535 144.977L251.859 144.718H252.185L252.186 144.717L252.51 144.458H252.836H253.161L253.162 144.457L253.487 144.198H253.812L253.814 144.197L254.138 143.938H254.464L254.465 143.937L254.789 143.679H255.115L255.116 143.678L255.44 143.419H255.766L255.767 143.418L256.091 143.159L256.092 143.158L256.417 142.899H256.742L256.743 142.898L257.068 142.639H257.393L257.394 142.639L257.719 142.38L257.72 142.379L258.044 142.12H258.37L258.371 142.119L258.695 141.86L258.696 141.859L259.021 141.6H259.346L259.347 141.6L259.672 141.341L259.673 141.34L259.997 141.081L259.998 141.08L260.323 140.821H260.648L260.649 140.82L260.974 140.561L260.975 140.561L261.299 140.302L261.3 140.301L261.625 140.042H261.951L261.952 140.041L262.276 139.782L262.277 139.781L262.602 139.522L262.603 139.521L262.927 139.263L262.928 139.262L263.253 139.003L263.254 139.002L263.578 138.743L263.579 138.742L263.904 138.483L263.905 138.482L264.229 138.223L264.23 138.223L264.555 137.964L264.556 137.963L264.88 137.704L264.881 137.703L265.206 137.444L265.207 137.443V137.184L265.531 136.925L265.532 136.924L265.857 136.665L265.858 136.664L266.182 136.405L266.183 136.404L266.508 136.145L266.509 136.145L266.833 135.886L266.834 135.885L267.159 135.626L267.16 135.625V135.365L267.484 135.106L267.485 135.105L267.81 134.847L267.811 134.846L268.135 134.587L268.136 134.586V134.326L268.461 134.067L268.462 134.066L268.786 133.807L268.787 133.807V133.547L269.112 133.288L269.113 133.287L269.437 133.028L269.439 133.027V132.768L269.763 132.509L269.764 132.508V132.248L270.089 131.989L270.09 131.988L270.414 131.729L270.415 131.729V131.469L270.74 131.21L270.741 131.209V130.949L271.065 130.69L271.066 130.689V130.43L271.391 130.171L271.392 130.17V129.91V129.65L271.716 129.391L271.717 129.391V129.131L272.042 128.872L272.043 128.871V128.611L272.367 128.352L272.368 128.352V128.092V127.832L272.693 127.573L272.694 127.572V127.312V127.053L273.018 126.794L273.019 126.793V126.533V126.273V126.014L273.344 125.755L273.345 125.754V125.494V125.234V124.975L273.669 124.716L273.67 124.715V124.455V124.195V123.936L273.995 123.677L273.996 123.676V123.416V123.156V122.896V122.637V122.377L274.32 122.118L274.321 122.117V121.857V121.598V121.338V121.078V120.818V120.559V120.299L274.646 120.04L274.647 120.039V119.779V119.52V119.26V119V118.74V118.48V118.221V117.961V117.701V117.441V117.182V116.922V116.662V116.402V116.143V115.883V115.623V115.363V115.104V114.844V114.584V114.324L274.646 114.323L274.321 114.064V113.805V113.545V113.285V113.025V112.766V112.506V112.246L274.32 112.245L273.996 111.986V111.727V111.467V111.207V110.947V110.687L273.995 110.687L273.67 110.428V110.168V109.908V109.648L273.669 109.648L273.345 109.389V109.129V108.869V108.609L273.344 108.609L273.019 108.35V108.09V107.83L273.018 107.829L272.694 107.57V107.311V107.051L272.693 107.05L272.368 106.791V106.531V106.271L272.367 106.271L272.043 106.012V105.752V105.492L272.042 105.491L271.717 105.232V104.973L271.716 104.972L271.392 104.713V104.453V104.193L271.391 104.193L271.066 103.934V103.674L271.065 103.673L270.741 103.414V103.154L270.74 103.153L270.415 102.895L270.414 102.894L270.09 102.635V102.375L270.089 102.374L269.764 102.115V101.855L269.763 101.855L269.439 101.596V101.336L269.437 101.335L269.113 101.076L269.112 101.075L268.787 100.816V100.557L268.786 100.556L268.462 100.297L268.461 100.296L268.136 100.037V99.7773L268.135 99.7765L267.811 99.5176L267.81 99.5168L267.485 99.2578L267.484 99.257L267.16 98.998V98.7383L267.159 98.7375L266.834 98.4785L266.833 98.4777L266.509 98.2187L266.508 98.2179L266.183 97.959L266.182 97.9582L265.858 97.6992L265.857 97.6984L265.532 97.4395L265.531 97.4386L265.207 97.1797L265.206 97.1789L264.881 96.9199L264.88 96.9191L264.556 96.6602L264.555 96.6593L264.23 96.4004L264.229 96.3996L263.905 96.1406L263.904 96.1398L263.579 95.8809L263.578 95.8801L263.254 95.6211L263.253 95.6203L262.928 95.3613L262.927 95.3605L262.603 95.1016L262.602 95.1008H262.276L261.952 94.8418L261.951 94.841L261.626 94.582L261.625 94.5812L261.3 94.3223L261.299 94.3215L260.975 94.0625L260.974 94.0617H260.648L260.324 93.8027L260.323 93.8019L259.998 93.543L259.997 93.5422H259.672L259.347 93.2832L259.346 93.2824L259.022 93.0234L259.021 93.0226H258.695L258.371 92.7637L258.37 92.7629L258.045 92.5039L258.044 92.5031H257.719L257.394 92.2441L257.393 92.2433L257.069 91.9844L257.068 91.9836H256.742L256.418 91.7246L256.417 91.7238H256.091L255.767 91.4648L255.766 91.464H255.44L255.116 91.2051L255.115 91.2043L254.79 90.9453L254.789 90.9445H254.464L254.139 90.6855L254.138 90.6847H253.812H253.487L253.162 90.4258L253.161 90.425H252.836L252.511 90.166L252.51 90.1652H252.185L251.86 89.9062L251.859 89.9054H251.534H251.208L250.884 89.6465L250.883 89.6457H250.557L250.233 89.3867L250.232 89.3859H249.906H249.581H249.255L248.931 89.127L248.93 89.1261H248.604H248.279L247.954 88.8672L247.953 88.8664H247.628H247.302H246.977L246.652 88.6074L246.651 88.6066H246.326H246H245.674H245.349H245.023L244.699 88.3477L244.698 88.3468H244.372H244.047H243.721H243.396H243.07H242.745H242.419H242.094H241.768H241.443H241.117L240.793 88.0879L240.792 88.0871L240.791 88.0879V88.3477V88.6074V88.8672V89.127V89.3867V89.6465V89.9062V90.166V90.4258V90.6855V90.9453V91.2051V91.4648V91.7246V91.9844V92.2441V92.5039V92.7637V93.0234V93.2832V93.543V93.8027V94.0625V94.3223V94.582V94.8418V95.1016V95.3613V95.6211V95.8809V96.1406V96.4004V96.6602V96.9199V97.1797V97.4395V97.6992V97.959V98.2187V98.4785V98.7383V98.998V99.2578V99.5176V99.7773V100.037V100.297V100.557V100.816V101.076V101.336V101.596V101.855V102.115V102.375V102.635V102.895V103.154V103.414V103.674V103.934V104.193V104.453V104.713V104.973V105.232V105.492V105.752V106.012L240.792 106.013H241.117H241.443L241.767 106.271L241.768 106.272H242.094H242.419H242.745H243.07L243.395 106.531L243.396 106.532H243.721H244.047H244.372L244.697 106.791L244.698 106.792H245.023L245.348 107.051L245.349 107.052H245.674L245.999 107.311L246 107.311L246.325 107.57L246.326 107.571H246.651L246.976 107.83L246.977 107.831L247.301 108.09L247.302 108.091L247.627 108.35L247.628 108.35H247.953L248.278 108.609L248.279 108.61L248.603 108.869L248.604 108.87L248.929 109.129L248.93 109.13L249.254 109.389L249.255 109.389L249.58 109.648V109.908L249.581 109.909L249.905 110.168L249.906 110.169L250.231 110.428L250.232 110.429L250.556 110.687V110.947L250.557 110.948L250.882 111.207V111.467L250.883 111.468L251.207 111.727V111.986L251.208 111.987L251.533 112.246L251.534 112.247L251.858 112.506V112.766V113.025L251.859 113.026L252.184 113.285V113.545L252.185 113.546L252.509 113.805V114.064V114.324L252.51 114.325L252.835 114.584V114.844V115.104V115.363L252.836 115.364L253.16 115.623V115.883V116.143V116.402V116.662V116.922V117.182V117.441V117.701V117.961V118.221V118.48V118.74L252.836 118.999L252.835 119V119.26V119.52V119.779L252.51 120.038L252.509 120.039V120.299V120.559L252.185 120.818L252.184 120.818V121.078L251.859 121.337L251.858 121.338V121.598L251.534 121.857L251.533 121.857V122.117L251.208 122.376L251.207 122.377V122.637L250.883 122.896L250.882 122.896L250.557 123.155L250.556 123.156V123.416L250.232 123.675L250.231 123.676L249.906 123.935L249.905 123.936L249.581 124.195L249.58 124.195L249.255 124.454L249.254 124.455L248.93 124.714L248.929 124.715L248.604 124.974L248.603 124.975L248.279 125.234L248.278 125.234L247.953 125.493L247.952 125.494L247.628 125.753L247.627 125.754L247.302 126.013L247.301 126.014L246.977 126.273L246.976 126.273L246.651 126.532L246.65 126.533L246.326 126.792H246L245.999 126.793L245.674 127.052H245.349L245.348 127.053L245.023 127.312L245.022 127.312L244.698 127.571H244.372L244.371 127.572L244.047 127.831H243.721H243.396L243.395 127.832L243.07 128.091H242.745H242.419L242.418 128.092L242.094 128.351H241.768H241.443H241.117H240.792L240.791 128.352V128.611V128.871V129.131V129.391V129.65V129.91V130.17V130.43V130.689V130.949V131.209V131.469V131.729V131.988V132.248V132.508V132.768V133.027V133.287V133.547V133.807V134.066V134.326V134.586V134.846V135.105V135.365V135.625V135.885V136.145V136.404V136.664V136.924V137.184V137.443V137.703V137.963V138.223V138.482V138.742V139.002V139.262V139.521V139.781V140.041V140.301V140.561V140.82V141.08V141.34V141.6V141.859V142.119V142.379V142.639V142.898V143.158V143.418V143.678V143.937V144.197V144.457V144.717V144.977V145.236V145.496V145.756V146.016V146.275V146.535V146.795L240.792 146.796H241.117L241.118 146.795Z" stroke="black"/>
<path d="M238.514 146.535L238.513 146.534L238.189 146.275V146.016V145.756V145.496V145.236V144.977V144.717V144.457V144.197V143.937V143.678V143.418V143.158V142.898V142.639V142.379V142.119V141.859V141.6V141.34V141.08V140.82V140.561V140.301V140.041V139.781V139.521V139.262V139.002V138.742V138.482V138.223V137.963V137.703V137.443V137.184V136.924V136.664V136.404V136.145V135.885V135.625V135.365V135.105V134.846V134.586V134.326V134.066V133.807V133.547V133.287V133.027V132.768V132.508V132.248V131.988V131.729V131.469V131.209V130.949V130.689V130.43V130.17V129.91V129.65V129.391V129.131V128.871L238.513 128.612L238.514 128.611L238.513 128.611L238.189 128.352L238.188 128.351H237.862H237.536H237.211H236.885H236.56L236.235 128.092L236.234 128.091H235.909H235.583L235.259 127.832L235.258 127.831H234.932H234.607L234.282 127.572L234.281 127.571H233.956L233.631 127.312L233.63 127.312L233.306 127.053L233.305 127.052H232.979L232.655 126.793L232.654 126.792L232.329 126.533L232.328 126.532L232.004 126.273L232.003 126.273H231.677L231.353 126.014L231.352 126.013L231.027 125.754L231.026 125.753L230.702 125.494L230.701 125.493L230.376 125.234L230.375 125.234L230.051 124.975V124.715L230.049 124.714L229.725 124.455L229.724 124.454L229.399 124.195L229.398 124.195L229.074 123.936V123.676L229.073 123.675L228.748 123.416L228.747 123.415L228.423 123.156V122.896L228.422 122.896L228.097 122.637V122.377L228.096 122.376L227.772 122.117V121.857L227.771 121.857L227.446 121.598V121.338L227.445 121.337L227.121 121.078V120.818L227.12 120.818L226.795 120.559V120.299V120.039V119.779L226.794 119.778L226.47 119.52V119.26V119V118.74V118.48L226.469 118.48L226.144 118.221V117.961V117.701V117.441V117.182V116.922V116.662L226.469 116.403L226.47 116.402V116.143V115.883V115.623V115.363L226.794 115.104L226.795 115.104V114.844V114.584L227.12 114.325L227.121 114.324V114.064V113.805L227.445 113.546L227.446 113.545V113.285V113.025L227.771 112.766L227.772 112.766V112.506L228.096 112.247L228.097 112.246V111.986V111.727L228.422 111.468L228.423 111.467L228.747 111.208L228.748 111.207V110.947L229.073 110.688L229.074 110.687L229.398 110.429L229.399 110.428L229.724 110.169L229.725 110.168L230.049 109.909L230.051 109.908L230.375 109.649L230.376 109.648L230.701 109.389L230.702 109.389L231.026 109.13L231.027 109.129L231.352 108.87L231.353 108.869L231.677 108.61H232.003L232.004 108.609L232.328 108.35L232.329 108.35L232.654 108.091H232.979L232.98 108.09L233.305 107.831L233.306 107.83L233.63 107.571H233.956L233.957 107.57L234.281 107.311H234.607L234.608 107.311L234.932 107.052H235.258L235.259 107.051L235.583 106.792H235.909L235.91 106.791L236.234 106.532H236.56H236.885L236.886 106.531L237.211 106.272H237.536H237.862H238.188L238.189 106.271L238.513 106.013L238.514 106.012L238.513 106.011L238.189 105.752V105.492V105.232V104.973V104.713V104.453V104.193V103.934V103.674V103.414V103.154V102.895V102.635V102.375V102.115V101.855V101.596V101.336V101.076V100.816V100.557V100.297V100.037V99.7773V99.5176V99.2578V98.998V98.7383V98.4785V98.2187L238.513 97.9598L238.514 97.959V97.6992V97.4395V97.1797V96.9199L238.513 96.9191L238.189 96.6602V96.4004V96.1406L238.513 95.8817L238.514 95.8809V95.6211V95.3613V95.1016V94.8418V94.582V94.3223V94.0625V93.8027V93.543V93.2832V93.0234V92.7637V92.5039V92.2441V91.9844V91.7246V91.4648V91.2051V90.9453V90.6855V90.4258V90.166V89.9062V89.6465V89.3867V89.127V88.8672V88.6074V88.3477L238.513 88.3468H238.188H237.862H237.536H237.211H236.885H236.56H236.234H235.909H235.583H235.258L235.257 88.3477L234.932 88.6066H234.607H234.281H233.956H233.63H233.305L233.304 88.6074L232.979 88.8664H232.654H232.328H232.003H231.677L231.676 88.8672L231.352 89.1261H231.026H230.701H230.375L230.374 89.127L230.049 89.3859H229.724H229.398H229.073L229.072 89.3867L228.747 89.6457H228.422H228.096L228.095 89.6465L227.771 89.9054H227.445L227.444 89.9062L227.12 90.1652H226.794H226.469L226.468 90.166L226.143 90.425H225.818L225.817 90.4258L225.492 90.6847H225.167L225.166 90.6855L224.841 90.9445H224.516L224.515 90.9453L224.19 91.2043H223.865L223.864 91.2051L223.539 91.464H223.214L223.213 91.4648L222.888 91.7238H222.563L222.562 91.7246L222.237 91.9836L222.236 91.9844L221.911 92.2433H221.586L221.585 92.2441L221.26 92.5031L221.259 92.5039L220.935 92.7629H220.609L220.608 92.7637L220.284 93.0226L220.283 93.0234L219.958 93.2824H219.633L219.632 93.2832L219.307 93.5422L219.306 93.543L218.982 93.8019H218.656L218.655 93.8027L218.331 94.0617L218.33 94.0625L218.005 94.3215L218.004 94.3223L217.68 94.5812L217.679 94.582L217.354 94.841H217.029L217.028 94.8418L216.703 95.1008L216.702 95.1016L216.378 95.3605L216.377 95.3613L216.052 95.6203L216.051 95.6211L215.727 95.8801L215.726 95.8809L215.401 96.1398L215.4 96.1406L215.076 96.3996L215.075 96.4004L214.75 96.6593L214.749 96.6602L214.424 96.9191L214.423 96.9199L214.099 97.1789L214.098 97.1797L213.773 97.4386L213.772 97.4395L213.448 97.6984L213.447 97.6992L213.122 97.9582L213.121 97.959L212.797 98.2179L212.796 98.2187V98.4785L212.471 98.7375L212.47 98.7383L212.146 98.9972L212.145 98.998L211.82 99.257L211.819 99.2578V99.5176L211.495 99.7765L211.494 99.7773L211.169 100.036L211.168 100.037L210.844 100.296L210.843 100.297V100.557L210.518 100.816L210.517 100.816V101.076L210.193 101.335L210.192 101.336L209.867 101.595L209.866 101.596V101.855L209.542 102.114L209.541 102.115L209.216 102.374L209.215 102.375V102.635L208.891 102.894L208.89 102.895V103.154L208.565 103.413L208.564 103.414V103.674L208.24 103.933L208.239 103.934V104.193L207.914 104.452L207.913 104.453V104.713L207.589 104.972L207.588 104.973V105.232L207.263 105.491L207.262 105.492V105.752L206.938 106.011L206.937 106.012V106.271L206.612 106.53L206.611 106.531V106.791V107.051L206.286 107.31L206.285 107.311V107.57L205.961 107.829L205.96 107.83V108.09V108.35V108.609L205.635 108.868L205.634 108.869V109.129V109.389L205.31 109.648L205.309 109.648V109.908V110.168V110.428V110.687L204.984 110.946L204.983 110.947V111.207V111.467V111.727V111.986V112.246L204.659 112.505L204.658 112.506V112.766V113.025V113.285V113.545V113.805V114.064V114.324L204.333 114.583L204.332 114.584V114.844V115.104V115.363V115.623V115.883V116.143V116.402V116.662V116.922V117.182V117.441V117.701V117.961V118.221V118.48V118.74V119L204.333 119.001L204.658 119.26V119.52V119.779V120.039V120.299V120.559V120.818V121.078V121.338V121.598V121.857L204.659 121.858L204.983 122.117V122.377V122.637V122.896V123.156L204.984 123.157L205.309 123.416V123.676V123.936V124.195V124.455L205.31 124.456L205.634 124.715V124.975V125.234V125.494L205.635 125.495L205.96 125.754V126.014V126.273L205.961 126.274L206.285 126.533V126.793V127.053L206.286 127.054L206.611 127.312V127.572L206.612 127.573L206.937 127.832V128.092V128.352L206.938 128.352L207.262 128.611V128.871L207.263 128.872L207.588 129.131V129.391V129.65L207.589 129.651L207.913 129.91V130.17L207.914 130.171L208.239 130.43V130.689L208.24 130.69L208.564 130.949V131.209L208.565 131.21L208.89 131.469V131.729L208.891 131.729L209.215 131.988V132.248L209.216 132.249L209.541 132.508V132.768L209.542 132.768L209.866 133.027V133.287L209.867 133.288L210.192 133.547L210.193 133.548L210.517 133.807V134.066L210.518 134.067L210.843 134.326L210.844 134.327L211.168 134.586V134.846L211.169 134.847L211.494 135.105L211.495 135.106L211.819 135.365V135.625L211.82 135.626L212.145 135.885L212.146 135.886L212.47 136.145L212.471 136.145L212.796 136.404V136.664L212.797 136.665L213.121 136.924L213.122 136.925L213.447 137.184L213.448 137.184L213.772 137.443L213.773 137.444L214.098 137.703L214.099 137.704L214.423 137.963L214.424 137.964L214.749 138.223L214.75 138.223L215.075 138.482L215.076 138.483L215.4 138.742L215.401 138.743L215.726 139.002L215.727 139.003L216.051 139.262L216.052 139.263L216.377 139.521L216.378 139.522L216.702 139.781L216.703 139.782L217.028 140.041L217.029 140.042H217.354L217.679 140.301L217.68 140.302L218.004 140.561L218.005 140.561L218.33 140.82L218.331 140.821L218.655 141.08L218.656 141.081H218.982L219.306 141.34L219.307 141.341L219.632 141.6L219.633 141.6H219.958L220.283 141.859L220.284 141.86L220.608 142.119L220.609 142.12H220.935L221.259 142.379L221.26 142.38L221.585 142.639L221.586 142.639H221.911L222.236 142.898L222.237 142.899L222.562 143.158L222.563 143.159H222.888L223.213 143.418L223.214 143.419H223.539L223.864 143.678L223.865 143.679H224.19L224.515 143.937L224.516 143.938H224.841L225.166 144.197L225.167 144.198H225.492L225.817 144.457L225.818 144.458H226.143L226.468 144.717L226.469 144.718H226.794L227.119 144.977L227.12 144.977H227.445L227.77 145.236L227.771 145.237H228.096H228.422L228.746 145.496L228.747 145.497H229.073H229.398L229.723 145.756L229.724 145.757H230.049H230.375H230.701L231.025 146.016L231.026 146.016H231.352H231.677H232.003H232.328L232.653 146.275L232.654 146.276H232.979H233.305H233.63H233.956H234.281H234.607L234.931 146.535L234.932 146.536H235.258H235.583H235.909H236.234H236.56H236.885H237.211H237.536H237.862H238.188H238.513L238.514 146.535Z" stroke="black"/>
<path d="M479 20.7254H399.642C399.606 20.7373 399.556 20.7534 399.493 20.7738C399.342 20.8233 399.116 20.8981 398.822 20.9989C398.232 21.2005 397.366 21.5061 396.262 21.9209C394.054 22.7505 390.897 24.0165 387.107 25.76C379.526 29.2474 369.418 34.6431 359.31 42.2748C339.1 57.5349 318.899 81.729 318.899 117.5C318.899 153.271 339.1 177.465 359.31 192.725C369.418 200.357 379.526 205.753 387.107 209.24C390.897 210.984 394.054 212.25 396.262 213.079C397.366 213.494 398.232 213.8 398.822 214.001C399.116 214.102 399.342 214.177 399.493 214.226C399.556 214.247 399.606 214.263 399.642 214.275H479V215H399.473L399.395 214.976L399.557 214.637C399.395 214.976 399.394 214.975 399.393 214.975L399.378 214.97C399.368 214.967 399.353 214.962 399.333 214.956C399.293 214.943 399.233 214.924 399.156 214.899C399 214.848 398.77 214.771 398.471 214.669C397.872 214.464 396.996 214.155 395.882 213.737C393.655 212.9 390.475 211.625 386.661 209.87C379.035 206.362 368.866 200.934 358.696 193.255C338.353 177.894 318 153.52 318 117.5C318 81.4805 338.353 57.1059 358.696 41.745C368.866 34.0662 379.035 28.6383 386.661 25.1298C390.475 23.3753 393.655 22.1002 395.882 21.2632C396.996 20.8447 397.872 20.5357 398.471 20.3309C398.77 20.2286 399 20.1523 399.156 20.1014C399.233 20.076 399.293 20.0569 399.333 20.0441C399.353 20.0377 399.368 20.0329 399.378 20.0296L399.39 20.0259L399.393 20.0249C399.394 20.0246 399.395 20.0245 399.557 20.3627L399.395 20.0245L399.473 20H479V20.7254Z" fill="black"/>
<path fill-rule="evenodd" clip-rule="evenodd" d="M-1 -2H483V236H-1V-2ZM240.578 -0.605469H144.757V13.4545H143.913V-0.605469H0.519888V64.4545H4.3984V65.2273H0.519888V168H4.3984V168.773H0.519888V234.605H143.913V220.545H144.757V234.605H240.578L240.578 -0.605469ZM241.422 -0.605469H337.243V13.4545H338.087V-0.605469H481.48V64.4545H477.602V65.2273H481.48V168H477.602V168.773H481.48V234.605H338.087V220.545H337.243V234.605H241.422L241.422 -0.605469Z" fill="black"/>
<path d="M241.444 126.533L241.768 126.274H242.094H242.419L242.42 126.273L242.745 126.014H243.07L243.071 126.014L243.396 125.755H243.721L243.722 125.754L244.047 125.495H244.372L244.373 125.494L244.698 125.235L244.699 125.234L245.023 124.975H245.349L245.35 124.975L245.674 124.716L245.675 124.715L246 124.456L246.001 124.455L246.326 124.196L246.327 124.195L246.651 123.936H246.977L246.978 123.936L247.302 123.677L247.303 123.676L247.628 123.417L247.629 123.416L247.953 123.157L247.954 123.156L248.279 122.897L248.28 122.896V122.637L248.604 122.378L248.605 122.377L248.93 122.118L248.931 122.117L249.255 121.858L249.256 121.857V121.598L249.581 121.339L249.582 121.338V121.078L249.906 120.819L249.907 120.818V120.559L250.232 120.3L250.233 120.299V120.039V119.779L250.557 119.52L250.558 119.52V119.26V119V118.74V118.48L250.883 118.222L250.884 118.221V117.961V117.701V117.441V117.182V116.922V116.662V116.402V116.143L250.883 116.142L250.558 115.883V115.623V115.363V115.104V114.844L250.557 114.843L250.233 114.584V114.324V114.064V113.805L250.232 113.804L249.907 113.545V113.285L249.906 113.284L249.582 113.025V112.766L249.581 112.765L249.256 112.506V112.246L249.255 112.245L248.931 111.986V111.727L248.93 111.726L248.605 111.467L248.604 111.466L248.28 111.207L248.279 111.206L247.954 110.947L247.953 110.946L247.629 110.688L247.628 110.687L247.303 110.428L247.302 110.427L246.978 110.168L246.977 110.167L246.652 109.908L246.651 109.907H246.326L246.001 109.648L246 109.648L245.675 109.389L245.674 109.388L245.35 109.129L245.349 109.128H245.023L244.699 108.869L244.698 108.868H244.372L244.048 108.609L244.047 108.609H243.721L243.397 108.35L243.396 108.349H243.07H242.745L242.42 108.09L242.419 108.089H242.094H241.768H241.443L241.118 107.83L241.117 107.829H240.792L240.791 107.83V108.09V108.35V108.609V108.869V109.129V109.389V109.648V109.908V110.168V110.428V110.688V110.947V111.207V111.467V111.727V111.986V112.246V112.506V112.766V113.025V113.285V113.545V113.805V114.064V114.324V114.584V114.844V115.104V115.363V115.623V115.883V116.143V116.402V116.662V116.922V117.182V117.441V117.701V117.961V118.221V118.48V118.74V119V119.26V119.52V119.779V120.039V120.299V120.559V120.818V121.078V121.338V121.598V121.857V122.117V122.377V122.637V122.896V123.156V123.416V123.676V123.936V124.195V124.455V124.715V124.975V125.234V125.494V125.754V126.014V126.273V126.533L240.792 126.534H241.117H241.443L241.444 126.533Z" stroke="black"/>
<path d="M238.514 126.533L238.513 126.532L238.189 126.273V126.014V125.754V125.494V125.234V124.975V124.715V124.455V124.195V123.936V123.676V123.416V123.156V122.896V122.637V122.377V122.117V121.857V121.598V121.338V121.078V120.818V120.559V120.299V120.039V119.779V119.52V119.26V119V118.74V118.48V118.221V117.961V117.701V117.441V117.182V116.922V116.662V116.402V116.143V115.883V115.623V115.363V115.104V114.844V114.584V114.324V114.064V113.805V113.545V113.285V113.025V112.766V112.506V112.246V111.986V111.727V111.467V111.207V110.947V110.688V110.428V110.168V109.908V109.648V109.389L238.513 109.13L238.514 109.129V108.869V108.609V108.35V108.09L238.513 108.089H238.188L238.187 108.09L237.862 108.349H237.536H237.211L237.21 108.35L236.885 108.609H236.56L236.559 108.609L236.234 108.868H235.909L235.908 108.869L235.583 109.128H235.258L235.257 109.129L234.932 109.388H234.607L234.606 109.389L234.281 109.648H233.956L233.955 109.648L233.63 109.907L233.629 109.908L233.305 110.167L233.304 110.168L232.979 110.427H232.654L232.653 110.428L232.328 110.687L232.327 110.688L232.003 110.946L232.002 110.947L231.677 111.206L231.676 111.207L231.352 111.466L231.351 111.467L231.026 111.726L231.025 111.727L230.701 111.986L230.7 111.986V112.246L230.375 112.505L230.374 112.506V112.766L230.049 113.025L230.048 113.025L229.724 113.284L229.723 113.285V113.545L229.398 113.804L229.397 113.805V114.064V114.324L229.073 114.583L229.072 114.584V114.844V115.104L228.747 115.362L228.746 115.363V115.623V115.883V116.143V116.402V116.662V116.922V117.182V117.441V117.701V117.961V118.221V118.48V118.74V119V119.26V119.52L228.747 119.52L229.072 119.779V120.039V120.299V120.559L229.073 120.559L229.397 120.818V121.078L229.398 121.079L229.723 121.338V121.598L229.724 121.598L230.048 121.857V122.117L230.049 122.118L230.374 122.377V122.637L230.375 122.638L230.7 122.896L230.701 122.897L231.025 123.156L231.026 123.157L231.351 123.416V123.676L231.352 123.677L231.676 123.936L231.677 123.936L232.002 124.195L232.003 124.196L232.327 124.455L232.328 124.456L232.653 124.715L232.654 124.716L232.978 124.975L232.979 124.975H233.305L233.629 125.234L233.63 125.235L233.955 125.494L233.956 125.495H234.281L234.606 125.754L234.607 125.755H234.932L235.257 126.014L235.258 126.014H235.583L235.908 126.273L235.909 126.274H236.234H236.56L236.884 126.533L236.885 126.534H237.211H237.536H237.862H238.188H238.513L238.514 126.533Z" stroke="black"/>
<rect x="1.69043" y="77.5789" width="107.999" height="77.8421" fill="#D9D9D9"/>
<path fill-rule="evenodd" clip-rule="evenodd" d="M109.681 77.5789H0.947158V155.421H109.681V77.5789ZM0 76.7613V156.239H110.628V76.7613H0Z" fill="black"/>
<path fill-rule="evenodd" clip-rule="evenodd" d="M42.2603 73V76.7613H41.3212V73H42.2603Z" fill="black"/>
<path fill-rule="evenodd" clip-rule="evenodd" d="M42.2603 156.239V160H41.3212V156.239H42.2603Z" fill="black"/>
<path fill-rule="evenodd" clip-rule="evenodd" d="M49.3976 73V76.7613H48.4585V73H49.3976Z" fill="black"/>
<path fill-rule="evenodd" clip-rule="evenodd" d="M49.3976 156.239V160H48.4585V156.239H49.3976Z" fill="black"/>
<path fill-rule="evenodd" clip-rule="evenodd" d="M67.2409 73V76.7613H66.3018V73H67.2409Z" fill="black"/>
<path fill-rule="evenodd" clip-rule="evenodd" d="M67.2409 156.239V160H66.3018V156.239H67.2409Z" fill="black"/>
<path fill-rule="evenodd" clip-rule="evenodd" d="M85.6476 73V76.7613H84.7085V73H85.6476Z" fill="black"/>
<path fill-rule="evenodd" clip-rule="evenodd" d="M85.6476 156.239V160H84.7085V156.239H85.6476Z" fill="black"/>
<rect x="1.69043" y="86.9004" width="107.999" height="59.1992" fill="#D9D9D9"/>
<path fill-rule="evenodd" clip-rule="evenodd" d="M109.681 86.9004H0.947158V146.1H109.681V86.9004ZM0 86.0827V146.917H110.628V86.0827H0Z" fill="black"/>
<path fill-rule="evenodd" clip-rule="evenodd" d="M62.5453 82.812V86.5733H61.6062V82.812H62.5453Z" fill="black"/>
<path fill-rule="evenodd" clip-rule="evenodd" d="M62.5453 146.427V150.188H61.6062V146.427H62.5453Z" fill="black"/>
<path fill-rule="evenodd" clip-rule="evenodd" d="M80.2007 82.812V86.5733H79.2616V82.812H80.2007Z" fill="black"/>
<path fill-rule="evenodd" clip-rule="evenodd" d="M80.2007 146.427V150.188H79.2616V146.427H80.2007Z" fill="black"/>
<path fill-rule="evenodd" clip-rule="evenodd" d="M98.6073 82.812V86.5733H97.6682V82.812H98.6073Z" fill="black"/>
<path fill-rule="evenodd" clip-rule="evenodd" d="M98.6073 146.427V150.188H97.6682V146.427H98.6073Z" fill="black"/>
<path d="M41.3212 82.9756H46.7681V86.0827H41.3212V82.9756Z" fill="black"/>
<path d="M41.3212 146.59H46.7681V149.697H41.3212V146.59Z" fill="black"/>
<path fill-rule="evenodd" clip-rule="evenodd" d="M77.1955 92.4605V96.2218H76.2563V92.4605H77.1955Z" fill="black"/>
<path fill-rule="evenodd" clip-rule="evenodd" d="M77.1955 136.615V140.376H76.2563V136.615H77.1955Z" fill="black"/>
<path d="M24.7927 96.0583L39.3576 96.0583C44.5591 97.8023 54.8473 104.337 54.8473 116.745C54.8473 129.054 44.5611 135.538 39.3582 137.269H24.7927V138.086H39.5283L39.6077 138.061C45.0118 136.295 55.7836 129.571 55.7836 116.745C55.7836 103.824 45.0145 97.0466 39.6088 95.2669L39.529 95.2406L24.7927 95.2406V96.0583Z" fill="black"/>
<path d="M111.515 86.5831C130.088 86.9928 145 100.23 145 116.5C144.999 132.77 130.088 146.007 111.515 146.417L110.628 146.427L110 146.422C108.539 146.399 107.1 146.297 105.689 146.12L105.823 145.311C107.195 145.483 108.595 145.582 110.017 145.605L110.628 145.609L111.491 145.6C129.556 145.201 144.061 132.325 144.061 116.5C144.061 100.675 129.556 87.7989 111.491 87.4005L110.628 87.3907C108.996 87.3907 107.391 87.493 105.823 87.6895L105.689 86.88C107.302 86.6779 108.951 86.5733 110.628 86.5733L111.515 86.5831ZM89.9263 139.358C92.4326 141.082 95.2284 142.499 98.2397 143.546L97.8921 144.305C94.7954 143.229 91.9207 141.771 89.3442 140L89.9263 139.358ZM79.5649 127.286C80.767 129.908 82.3954 132.342 84.3745 134.524L83.6372 135.031C81.6027 132.788 79.9289 130.285 78.6929 127.589L79.5649 127.286ZM77.5386 112.316C77.3128 113.681 77.1958 115.079 77.1958 116.5C77.1958 117.921 77.3128 119.318 77.5386 120.684L76.6089 120.801C76.3768 119.397 76.2564 117.96 76.2563 116.5C76.2563 115.04 76.3768 113.604 76.6089 112.199L77.5386 112.316ZM84.3745 98.4757C82.3954 100.658 80.767 103.092 79.5649 105.714L78.6929 105.411C79.9289 102.715 81.6028 100.212 83.6372 97.9688L84.3745 98.4757ZM98.2397 89.4542C95.2284 90.5008 92.4326 91.9185 89.9263 93.6417L89.3442 93.0001C91.9207 91.2287 94.7954 89.7716 97.8921 88.6954L98.2397 89.4542Z" fill="#060606"/>
<rect width="109.488" height="79.6316" transform="matrix(-1 0 0 1 477.286 78.6842)" fill="#D9D9D9"/>
<path fill-rule="evenodd" clip-rule="evenodd" d="M367.806 78.6842H478.04V158.316H367.806V78.6842ZM479 77.8477V159.152H366.846V77.8477H479Z" fill="black"/>
<path fill-rule="evenodd" clip-rule="evenodd" d="M436.157 74V77.8477H437.109V74H436.157Z" fill="black"/>
<path fill-rule="evenodd" clip-rule="evenodd" d="M436.157 159.152V163H437.109V159.152H436.157Z" fill="black"/>
<path fill-rule="evenodd" clip-rule="evenodd" d="M428.921 74V77.8477H429.873V74H428.921Z" fill="black"/>
<path fill-rule="evenodd" clip-rule="evenodd" d="M428.921 159.152V163H429.873V159.152H428.921Z" fill="black"/>
<path fill-rule="evenodd" clip-rule="evenodd" d="M410.832 74V77.8477H411.784V74H410.832Z" fill="black"/>
<path fill-rule="evenodd" clip-rule="evenodd" d="M410.832 159.152V163H411.784V159.152H410.832Z" fill="black"/>
<path fill-rule="evenodd" clip-rule="evenodd" d="M392.171 74V77.8477H393.123V74H392.171Z" fill="black"/>
<path fill-rule="evenodd" clip-rule="evenodd" d="M392.171 159.152V163H393.123V159.152H392.171Z" fill="black"/>
<rect width="109.488" height="60.5602" transform="matrix(-1 0 0 1 477.286 88.2199)" fill="#D9D9D9"/>
<path fill-rule="evenodd" clip-rule="evenodd" d="M367.806 88.2199H478.04V148.78H367.806V88.2199ZM479 87.3835V149.617H366.846V87.3835H479Z" fill="black"/>
<path fill-rule="evenodd" clip-rule="evenodd" d="M415.592 84.0376V87.8853H416.544V84.0376H415.592Z" fill="black"/>
<path fill-rule="evenodd" clip-rule="evenodd" d="M415.592 149.115V152.962H416.544V149.115H415.592Z" fill="black"/>
<path fill-rule="evenodd" clip-rule="evenodd" d="M397.693 84.0376V87.8853H398.645V84.0376H397.693Z" fill="black"/>
<path fill-rule="evenodd" clip-rule="evenodd" d="M397.693 149.115V152.962H398.645V149.115H397.693Z" fill="black"/>
<path fill-rule="evenodd" clip-rule="evenodd" d="M379.033 84.0376V87.8853H379.985V84.0376H379.033Z" fill="black"/>
<path fill-rule="evenodd" clip-rule="evenodd" d="M379.033 149.115V152.962H379.985V149.115H379.033Z" fill="black"/>
<path d="M437.109 84.2049H431.587V87.3835H437.109V84.2049Z" fill="black"/>
<path d="M437.109 149.282H431.587V152.461H437.109V149.282Z" fill="black"/>
<path fill-rule="evenodd" clip-rule="evenodd" d="M400.74 93.9079V97.7556H401.692V93.9079H400.74Z" fill="black"/>
<path fill-rule="evenodd" clip-rule="evenodd" d="M400.74 139.077V142.925H401.692V139.077H400.74Z" fill="black"/>
<path d="M453.866 97.5883L439.1 97.5883C433.827 99.3725 423.396 106.058 423.396 118.751C423.396 131.342 433.824 137.976 439.099 139.746H453.866V140.583H438.927L438.846 140.556C433.368 138.75 422.447 131.871 422.447 118.751C422.447 105.532 433.365 98.5993 438.845 96.7788L438.926 96.7519L453.866 96.7519V97.5883Z" fill="black"/>
<path d="M366.846 87.8853C347.601 87.8853 332.001 101.592 332 118.5C332 135.143 347.117 148.686 365.947 149.105L366.846 149.115L367.482 149.11C368.963 149.087 370.422 148.982 371.853 148.801L371.718 147.973C370.128 148.174 368.501 148.278 366.846 148.278C348.127 148.278 332.953 134.946 332.953 118.5C332.953 102.311 347.657 89.1397 365.971 88.732L366.846 88.7223C368.501 88.7223 370.128 88.8259 371.718 89.0269L371.853 88.1988C370.218 87.9921 368.546 87.8854 366.846 87.8853ZM387.833 141.884C385.292 143.647 382.458 145.097 379.405 146.168L379.757 146.944C382.897 145.843 385.811 144.353 388.423 142.541L387.833 141.884ZM398.337 129.534C397.119 132.216 395.469 134.707 393.462 136.939L394.209 137.458C396.272 135.163 397.968 132.602 399.221 129.844L398.337 129.534ZM400.392 114.219C400.621 115.617 400.74 117.046 400.74 118.5C400.74 119.953 400.621 121.383 400.392 122.78L401.334 122.899C401.57 121.462 401.692 119.993 401.692 118.5C401.692 117.006 401.57 115.537 401.334 114.1L400.392 114.219ZM393.462 100.061C395.469 102.294 397.119 104.784 398.337 107.466L399.221 107.156C397.968 104.398 396.272 101.837 394.209 99.5426L393.462 100.061ZM379.405 90.8326C382.458 91.9033 385.292 93.353 387.833 95.1158L388.423 94.4596C385.811 92.6475 382.897 91.1572 379.757 90.0562L379.405 90.8326Z" fill="black"/>
<path d="M0 22.7106H78.8647C78.9014 22.7221 78.9509 22.7379 79.0131 22.758C79.1635 22.8064 79.3876 22.8796 79.6805 22.9784C80.2663 23.1759 81.1274 23.4752 82.2245 23.8815C84.4186 24.694 87.5562 25.9341 91.3227 27.6418C98.8564 31.0577 108.902 36.3428 118.946 43.8179C139.031 58.765 159.107 82.4627 159.107 117.5C159.107 152.537 139.031 176.235 118.946 191.182C108.902 198.657 98.8564 203.942 91.3227 207.358C87.5562 209.066 84.4186 210.306 82.2245 211.119C81.1274 211.525 80.2663 211.824 79.6805 212.022C79.3876 212.12 79.1635 212.194 79.0131 212.242C78.9509 212.262 78.9014 212.278 78.8647 212.289H0V213H79.033L79.1109 212.976L78.9496 212.645C79.1109 212.976 79.1122 212.976 79.1122 212.976L79.1271 212.971C79.1374 212.968 79.1525 212.963 79.1724 212.957C79.2122 212.944 79.2711 212.926 79.3484 212.901C79.5031 212.851 79.7316 212.776 80.0291 212.676C80.624 212.475 81.4946 212.173 82.6015 211.763C84.8154 210.943 87.975 209.694 91.7651 207.975C99.3445 204.539 109.45 199.222 119.557 191.701C139.774 176.655 160 152.781 160 117.5C160 82.2193 139.774 58.3448 119.557 43.299C109.45 35.7776 99.3445 30.4611 91.7651 27.0245C87.975 25.3061 84.8154 24.0572 82.6015 23.2373C81.4946 22.8274 80.624 22.5247 80.0291 22.3241C79.7316 22.2239 79.5031 22.1492 79.3484 22.0993C79.2711 22.0744 79.2122 22.0557 79.1724 22.0432C79.1525 22.0369 79.1374 22.0322 79.1271 22.029L79.1153 22.0254L79.1122 22.0244C79.1122 22.0244 79.1109 22.024 78.9496 22.3553L79.1109 22.024L79.033 22H0V22.7106Z" fill="black"/>
</g>
<defs>
<clipPath id="clip0_1_3">
<rect width="479" height="236" fill="white"/>
</clipPath>
</defs>
</svg>
