<svg width="556" height="280" viewBox="0 0 556 280" fill="none" xmlns="http://www.w3.org/2000/svg">
<rect width="556" height="280" fill="#252545"/>
<path d="M520.073 257.894H519.747H519.422H519.096H518.771H518.445H518.12H517.794H517.469H517.143H516.818H516.492H516.167H515.841H515.516H515.19H514.865H514.539H514.214H513.888H513.563H513.237H512.912H512.586H512.26H511.935H511.609H511.284H510.958H510.633H510.307H509.982H509.656H509.331H509.005H508.68H508.354H508.029H507.703H507.378H507.052H506.727H506.401H506.076H505.75H505.425H505.099H504.774H504.448H504.122H503.797H503.471H503.146H502.82H502.495H502.169H501.844H501.518H501.193H500.867H500.542H500.216H499.891H499.565H499.24H498.914H498.589H498.263H497.938H497.612H497.287H496.961H496.635H496.31H495.984H495.659H495.333H495.008H494.682H494.357H494.031H493.706H493.38H493.055H492.729H492.404H492.078H491.753H491.427H491.102H490.776H490.451H490.125H489.8H489.474H489.149H488.823H488.497H488.172H487.846H487.521H487.195H486.87H486.544H486.219H485.893H485.568H485.242H484.917H484.591H484.266H483.94H483.615H483.289H482.964H482.638H482.313H481.987H481.662H481.336H481.01H480.685H480.359H480.034H479.708H479.383H479.057H478.732H478.406H478.081H477.755H477.43H477.104H476.779H476.453H476.128H475.802H475.477H475.151H474.826H474.5H474.175H473.849H473.524H473.198H472.872H472.547H472.221H471.896H471.57H471.245H470.919H470.594H470.268H469.943H469.617H469.292H468.966H468.641H468.315H467.99H467.664H467.339H467.013H466.688H466.362H466.037H465.711H465.385H465.06H464.734H464.409H464.083H463.758H463.432H463.107H462.781H462.456H462.13H461.805H461.479H461.154H460.828H460.503H460.177H459.852H459.526H459.201H458.875H458.55H458.224H457.899H457.573H457.247H456.922H456.596H456.271H455.945H455.62H455.294H454.969H454.643H454.318H453.992H453.667H453.341H453.016H452.69H452.365H452.039H451.714H451.388H451.063H450.737H450.412H450.086H449.76H449.435H449.109H448.784H448.458H448.133H447.807H447.482H447.156H446.831H446.505H446.18H445.854H445.529H445.203H444.878H444.552H444.227H443.901H443.576H443.25H442.925H442.599H442.274H441.948H441.622H441.297H440.971H440.646H440.32H439.995H439.669H439.344H439.018H438.693H438.367H438.042H437.716H437.391H437.065H436.74H436.414H436.089H435.763H435.438H435.112H434.787H434.461H434.135H433.81H433.484H433.159H432.833H432.508H432.182H431.857H431.531H431.206H430.88H430.555H430.229H429.904H429.578H429.253H428.927H428.602H428.276H427.951H427.625H427.3H426.974H426.649H426.323H425.997H425.672H425.346H425.021H424.695H424.37H424.044H423.719H423.393H423.068H422.742H422.417H422.091H421.766H421.44H421.115H420.789H420.464H420.138H419.813H419.487H419.162H418.836H418.51H418.185H417.859H417.534H417.208H416.883H416.557H416.232H415.906H415.581H415.255H414.93H414.604H414.279H413.953H413.628H413.302H412.977H412.651H412.326H412H411.675H411.349H411.024H410.698H410.372H410.047H409.721H409.396H409.07H408.745H408.419H408.094H407.768H407.443H407.117H406.792H406.466H406.141H405.815H405.49H405.164H404.839H404.513H404.188H403.862H403.537H403.211H402.885H402.56H402.234H401.909H401.583H401.258H400.932H400.607H400.281H399.956H399.63H399.305H398.979H398.654H398.328H398.003H397.677H397.352H397.026H396.701H396.375H396.05H395.724H395.399H395.073H394.747H394.422H394.096H393.771H393.445H393.12H392.794H392.469H392.143H391.818H391.492H391.167H390.841H390.516H390.19H389.865H389.539H389.214H388.888H388.563H388.237H387.912H387.586H387.26H386.935H386.609H386.284H385.958H385.633H385.307H384.982H384.656H384.331H384.005H383.68H383.354H383.029H382.703H382.378H382.052H381.727H381.401H381.076H380.75H380.425H380.099H379.774H379.448H379.122H378.797H378.471H378.146H377.82H377.495H377.169H376.844H376.518H376.193H375.867H375.542H375.216H374.891H374.565H374.24H373.914H373.589H373.263H372.938H372.612H372.287H371.961H371.635H371.31H370.984H370.659H370.333H370.008H369.682H369.357H369.031H368.706H368.38H368.055H367.729H367.404H367.078H366.753H366.427H366.102H365.776H365.451H365.125H364.8H364.474H364.148H363.823H363.497H363.172H362.846H362.521H362.195H361.87H361.544H361.219H360.893H360.568H360.242H359.917H359.591H359.266H358.94H358.615H358.289H357.964H357.638H357.313H356.987H356.662H356.336H356.01H355.685H355.359H355.034H354.708H354.383H354.057H353.732H353.406H353.081H352.755H352.43H352.104H351.779H351.453H351.128H350.802H350.477H350.151H349.826H349.5H349.175H348.849H348.523H348.198H347.872H347.547H347.221H346.896H346.57H346.245H345.919H345.594H345.268H344.943H344.617H344.292H343.966H343.641H343.315H342.99H342.664H342.339H342.013H341.688H341.362H341.037H340.711H340.385H340.06H339.734H339.409H339.083H338.758H338.432H338.107H337.781H337.456H337.13H336.805H336.479H336.154H335.828H335.503H335.177H334.852H334.526H334.201H333.875H333.55H333.224H332.898H332.573H332.247H331.922H331.596H331.271H330.945H330.62H330.294H329.969H329.643H329.318H328.992H328.667H328.341H328.016H327.69H327.365H327.039H326.714H326.388H326.063H325.737H325.412H325.086H324.76H324.435H324.109H323.784H323.458H323.133H322.807H322.482H322.156H321.831H321.505H321.18H320.854H320.529H320.203H319.878H319.552H319.227H318.901H318.576H318.25H317.925H317.599H317.273H316.948H316.622H316.297H315.971H315.646H315.32H314.995H314.669H314.344H314.018H313.693H313.367H313.042H312.716H312.391H312.065H311.74H311.414H311.089H310.763H310.438H310.112H309.787H309.461H309.135H308.81H308.484H308.159H307.833H307.508H307.182H306.857H306.531H306.206H305.88H305.555H305.229H304.904H304.578H304.253H303.927H303.602H303.276H302.951H302.625H302.3H301.974H301.648H301.323H300.997H300.672H300.346H300.021H299.695H299.37H299.044H298.719H298.393H298.068H297.742H297.417H297.091H296.766H296.44H296.115H295.789H295.464H295.138H294.813H294.487H294.162H293.836H293.51H293.185H292.859H292.534H292.208H291.883H291.557H291.232H290.906H290.581H290.255H289.93H289.604H289.279H288.953H288.628H288.302H287.977H287.651H287.326H287H286.675H286.349H286.023H285.698H285.372H285.047H284.721H284.396H284.07H283.745H283.419H283.094H282.768H282.443H282.117H281.792H281.466H281.141H280.815H280.49H280.164H279.839H279.513H279.188H278.862H278.537H278.211H277.885H277.56H277.234H276.909H276.583H276.258H275.932H275.607H275.281H274.956H274.63H274.305H273.979H273.654H273.328H273.003H272.677H272.352H272.026H271.701H271.375H271.05H270.724H270.398H270.073H269.747H269.422H269.096H268.771H268.445H268.12H267.794H267.469H267.143H266.818H266.492H266.167H265.841H265.516H265.19H264.865H264.539H264.214H263.888H263.563H263.237H262.912H262.586H262.26H261.935H261.609H261.284H260.958H260.633H260.307H259.982H259.656H259.331H259.005H258.68H258.354H258.029H257.703H257.378H257.052H256.727H256.401H256.076H255.75H255.425H255.099H254.773H254.448H254.122H253.797H253.471H253.146H252.82H252.495H252.169H251.844H251.518H251.193H250.867H250.542H250.216H249.891H249.565H249.24H248.914H248.589H248.263H247.938H247.612H247.287H246.961H246.635H246.31H245.984H245.659H245.333H245.008H244.682H244.357H244.031H243.706H243.38H243.055H242.729H242.404H242.078H241.753H241.427H241.102H240.776H240.451H240.125H239.8H239.474H239.148H238.823H238.497H238.172H237.846H237.521H237.195H236.87H236.544H236.219H235.893H235.568H235.242H234.917H234.591H234.266H233.94H233.615H233.289H232.964H232.638H232.313H231.987H231.662H231.336H231.01H230.685H230.359H230.034H229.708H229.383H229.057H228.732H228.406H228.081H227.755H227.43H227.104H226.779H226.453H226.128H225.802H225.477H225.151H224.826H224.5H224.175H223.849H223.523H223.198H222.872H222.547H222.221H221.896H221.57H221.245H220.919H220.594H220.268H219.943H219.617H219.292H218.966H218.641H218.315H217.99H217.664H217.339H217.013H216.688H216.362H216.037H215.711H215.385H215.06H214.734H214.409H214.083H213.758H213.432H213.107H212.781H212.456H212.13H211.805H211.479H211.154H210.828H210.503H210.177H209.852H209.526H209.201H208.875H208.55H208.224H207.898H207.573H207.247H206.922H206.596H206.271H205.945H205.62H205.294H204.969H204.643H204.318H203.992H203.667H203.341H203.016H202.69H202.365H202.039H201.714H201.388H201.063H200.737H200.412H200.086H199.76H199.435H199.109H198.784H198.458H198.133H197.807H197.482H197.156H196.831H196.505H196.18H195.854H195.529H195.203H194.878H194.552H194.227H193.901H193.576H193.25H192.925H192.599H192.273H191.948H191.622H191.297H190.971H190.646H190.32H189.995H189.669H189.344H189.018H188.693H188.367H188.042H187.716H187.391H187.065H186.74H186.414H186.089H185.763H185.438H185.112H184.787H184.461H184.135H183.81H183.484H183.159H182.833H182.508H182.182H181.857H181.531H181.206H180.88H180.555H180.229H179.904H179.578H179.253H178.927H178.602H178.276H177.951H177.625H177.3H176.974H176.648H176.323H175.997H175.672H175.346H175.021H174.695H174.37H174.044H173.719H173.393H173.068H172.742H172.417H172.091H171.766H171.44H171.115H170.789H170.464H170.138H169.813H169.487H169.162H168.836H168.51H168.185H167.859H167.534H167.208H166.883H166.557H166.232H165.906H165.581H165.255H164.93H164.604H164.279H163.953H163.628H163.302H162.977H162.651H162.326H162H161.675H161.349H161.023H160.698H160.372H160.047H159.721H159.396H159.07H158.745H158.419H158.094H157.768H157.443H157.117H156.792H156.466H156.141H155.815H155.49H155.164H154.839H154.513H154.188H153.862H153.537H153.211H152.885H152.56H152.234H151.909H151.583H151.258H150.932H150.607H150.281H149.956H149.63H149.305H148.979H148.654H148.328H148.003H147.677H147.352H147.026H146.701H146.375H146.05H145.724H145.398H145.073H144.747H144.422H144.096H143.771H143.445H143.12H142.794H142.469H142.143H141.818H141.492H141.167H140.841H140.516H140.19H139.865H139.539H139.214H138.888H138.563H138.237H137.912H137.586H137.26H136.935H136.609H136.284H135.958H135.633H135.307H134.982H134.656H134.331H134.005H133.68H133.354H133.029H132.703H132.378H132.052H131.727H131.401H131.076H130.75H130.425H130.099H129.773H129.448H129.122H128.797H128.471H128.146H127.82H127.495H127.169H126.844H126.518H126.193H125.867H125.542H125.216H124.891H124.565H124.24H123.914H123.589H123.263H122.938H122.612H122.287H121.961H121.635H121.31H120.984H120.659H120.333H120.008H119.682H119.357H119.031H118.706H118.38H118.055H117.729H117.404H117.078H116.753H116.427H116.102H115.776H115.451H115.125H114.8H114.474H114.148H113.823H113.497H113.172H112.846H112.521H112.195H111.87H111.544H111.219H110.893H110.568H110.242H109.917H109.591H109.266H108.94H108.615H108.289H107.964H107.638H107.313H106.987H106.662H106.336H106.01H105.685H105.359H105.034H104.708H104.383H104.057H103.732H103.406H103.081H102.755H102.43H102.104H101.779H101.453H101.128H100.802H100.477H100.151H99.8256H99.5001H99.1745H98.849H98.5235H98.198H97.8724H97.5469H97.2214H96.8959H96.5704H96.2448H95.9193H95.5938H95.2683H94.9428H94.6172H94.2917H93.9662H93.6407H93.3152H92.9896H92.6641H92.3386H92.0131H91.6876H91.362H91.0365H90.711H90.3855H90.0599H89.7344H89.4089H89.0834H88.7579H88.4323H88.1068H87.7813H87.4558H87.1303H86.8047H86.4792H86.1537H85.8282H85.5027H85.1771H84.8516H84.5261H84.2006H83.8751H83.5495H83.224H82.8985H82.573H82.2474H81.9219H81.5964H81.2709H80.9454H80.6198H80.2943H79.9688H79.6433H79.3178H78.9922H78.6667H78.3412H78.0157H77.6902H77.3646H77.0391H76.7136H76.3881H76.0626H75.737H75.4115H75.086H74.7605H74.4349H74.1094H73.7839H73.4584H73.1329H72.8073H72.4818H72.1563H71.8308H71.5053H71.1797H70.8542H70.5287H70.2032H69.8777H69.5521H69.2266H68.9011H68.5756H68.2501H67.9245H67.599H67.2735H66.948H66.6224H66.2969H65.9714H65.6459H65.3204H64.9948H64.6693H64.3438H64.0183H63.6928H63.3672H63.0417H62.7162H62.3907H62.0652H61.7396H61.4141H61.0886H60.7631H60.4375H60.112H59.7865H59.461H59.1355H58.8099H58.4844H58.1589H57.8334H57.5079H57.1823H56.8568H56.5313H56.2058H55.8803H55.5547H55.2292H54.9037H54.5782H54.2527H53.9271H53.6016H53.2761H52.9506H52.625H52.2995H51.974H51.6485H51.323H50.9974H50.6719H50.3464H50.0209H49.6954H49.3698H49.0443H48.7188H48.3933H48.0678H47.7422H47.4167H47.0912H46.7657H46.4402H46.1146H45.7891H45.4636H45.1381H44.8125H44.487H44.1615H43.836H43.5105H43.1849H42.8594H42.5339H42.2084H41.8829H41.5573H41.2318H40.9063L40.5818 257.635V257.375V257.115V256.855V256.596V256.336V256.076V255.816V255.557V255.297V255.037V254.777V254.518V254.258V253.998V253.738V253.479V253.219V252.959V252.699V252.439V252.18V251.92V251.66V251.4V251.141V250.881V250.621V250.361V250.102V249.842V249.582V249.322V249.063V248.803V248.543V248.283V248.023V247.764V247.504V247.244V246.984V246.725V246.465V246.205V245.945V245.686V245.426V245.166V244.906V244.646V244.387V244.127V243.867V243.607V243.348V243.088V242.828V242.568V242.309V242.049V241.789V241.529V241.27V241.01V240.75V240.49V240.23V239.971V239.711V239.451V239.191V238.932V238.672V238.412V238.152V237.893V237.633V237.373V237.113V236.854V236.594V236.334V236.074V235.814V235.555V235.295V235.035V234.775V234.516V234.256V233.996V233.736V233.477V233.217V232.957V232.697V232.438V232.178V231.918V231.658V231.398V231.139V230.879V230.619V230.359V230.1V229.84V229.58V229.32V229.061V228.801V228.541V228.281V228.021V227.762V227.502V227.242V226.982V226.723V226.463V226.203V225.943V225.684V225.424V225.164V224.904V224.645V224.385V224.125V223.865V223.605V223.346V223.086V222.826V222.566V222.307V222.047V221.787V221.527V221.268V221.008V220.748V220.488V220.229V219.969V219.709V219.449V219.189V218.93V218.67V218.41V218.15V217.891V217.631V217.371V217.111V216.852V216.592V216.332V216.072L40.9063 215.813L40.9073 215.813L40.9063 215.812L40.5818 215.553V215.293V215.033V214.773V214.514V214.254V213.994V213.734V213.475V213.215V212.955V212.695V212.436V212.176V211.916V211.656V211.396V211.137V210.877V210.617V210.357V210.098V209.838V209.578V209.318V209.059V208.799V208.539V208.279V208.02V207.76V207.5V207.24V206.98V206.721V206.461V206.201V205.941V205.682V205.422V205.162V204.902V204.643V204.383V204.123V203.863V203.604V203.344V203.084V202.824V202.564V202.305V202.045V201.785V201.525V201.266V201.006V200.746V200.486V200.227V199.967V199.707V199.447V199.188V198.928V198.668V198.408V198.148V197.889V197.629V197.369V197.109V196.85V196.59V196.33V196.07V195.811V195.551V195.291V195.031V194.771V194.512V194.252V193.992V193.732V193.473V193.213V192.953V192.693V192.434V192.174V191.914V191.654V191.395V191.135V190.875V190.615V190.355V190.096V189.836L40.9063 189.577L40.9073 189.576L40.9063 189.575L40.5818 189.316V189.057L40.9063 188.798L40.9073 188.797L40.9063 188.796L40.5818 188.537V188.277V188.018V187.758V187.498V187.238L40.9063 186.979L40.9073 186.979L40.9063 186.978L40.5818 186.719L40.9063 186.46L40.9073 186.459L40.9063 186.458L40.5818 186.199V185.939V185.68V185.42V185.16V184.9V184.641V184.381V184.121V183.861V183.602V183.342V183.082V182.822V182.563V182.303V182.043V181.783V181.523V181.264V181.004V180.744V180.484V180.225V179.965V179.705V179.445V179.186V178.926V178.666V178.406V178.146V177.887V177.627V177.367V177.107V176.848V176.588V176.328V176.068V175.809V175.549V175.289V175.029V174.77V174.51V174.25V173.99V173.73V173.471V173.211V172.951V172.691V172.432V172.172V171.912V171.652V171.393V171.133V170.873V170.613V170.354V170.094V169.834V169.574V169.314V169.055V168.795V168.535V168.275V168.016V167.756V167.496V167.236V166.977V166.717L40.9063 166.458L40.9073 166.457V166.197V165.938L40.9063 165.937L40.5818 165.678V165.418V165.158V164.898V164.639V164.379V164.119V163.859V163.6V163.34V163.08V162.82V162.561V162.301V162.041L40.9063 161.782L40.9073 161.781L40.9063 161.78L40.5818 161.521V161.262V161.002V160.742V160.482V160.223V159.963V159.703L40.9063 159.444L40.9073 159.443L40.9063 159.443L40.5818 159.184V158.924V158.664V158.404V158.145V157.885V157.625V157.365V157.105V156.846V156.586V156.326V156.066V155.807V155.547V155.287V155.027V154.768V154.508V154.248V153.988V153.729V153.469V153.209V152.949V152.689V152.43V152.17V151.91V151.65V151.391V151.131V150.871V150.611V150.352V150.092V149.832V149.572V149.313V149.053V148.793V148.533V148.273V148.014V147.754V147.494V147.234V146.975V146.715V146.455V146.195V145.936V145.676V145.416V145.156L40.9063 144.897L40.9073 144.896V144.637V144.377L40.9063 144.376L40.5818 144.117L40.9063 143.858L40.9073 143.857L40.9063 143.857L40.5818 143.598L40.9063 143.339L40.9073 143.338V143.078L40.9063 143.077L40.5818 142.818V142.559V142.299V142.039V141.779V141.52V141.26V141V140.74L40.9063 140.481L40.9073 140.48L40.9063 140.48L40.5818 140.221V139.961L40.9063 139.702L40.9073 139.701V139.441V139.182V138.922V138.662V138.402V138.143V137.883L40.9063 137.882L40.5818 137.623V137.363L40.9063 137.104L40.9073 137.104V136.844L40.9063 136.843L40.5818 136.584V136.324V136.064V135.805V135.545V135.285V135.025V134.766L40.9063 134.507L40.9073 134.506V134.246V133.986V133.727V133.467L40.9063 133.466L40.5818 133.207L40.9063 132.948L40.9073 132.947V132.688V132.428V132.168V131.908V131.648V131.389V131.129V130.869L40.9063 130.868L40.5818 130.609L40.9063 130.35L40.9073 130.35L40.9063 130.349L40.5818 130.09V129.83V129.57V129.311V129.051V128.791L40.9063 128.532L40.9073 128.531L40.9063 128.53L40.5818 128.271V128.012V127.752V127.492V127.232V126.973V126.713V126.453L40.9063 126.194L40.9073 126.193V125.934V125.674V125.414V125.154V124.895V124.635V124.375V124.115V123.855V123.596V123.336V123.076V122.816V122.557V122.297V122.037V121.777V121.518V121.258V120.998V120.738V120.479V120.219V119.959V119.699V119.439V119.18V118.92V118.66V118.4V118.141V117.881V117.621V117.361V117.102V116.842V116.582V116.322V116.063V115.803V115.543V115.283V115.023V114.764V114.504V114.244V113.984V113.725V113.465V113.205V112.945V112.686V112.426V112.166V111.906V111.646V111.387V111.127V110.867V110.607V110.348V110.088V109.828V109.568V109.309V109.049V108.789V108.529L40.9063 108.528L40.5818 108.27L40.9063 108.011L40.9073 108.01V107.75V107.49V107.23L40.9063 107.23L40.5818 106.971L40.9063 106.712L40.9073 106.711L40.9063 106.71L40.5818 106.451V106.191V105.932V105.672V105.412V105.152L40.9063 104.893L40.9073 104.893L40.9063 104.892L40.5818 104.633V104.373V104.113V103.854L40.9063 103.595L40.9073 103.594V103.334L40.9063 103.333L40.5818 103.074V102.814V102.555V102.295V102.035V101.775V101.516V101.256V100.996L40.9063 100.737L40.9073 100.736L40.9063 100.736L40.5818 100.477V100.217V99.957V99.6973L40.9063 99.4383L40.9073 99.4375L40.9063 99.4367L40.5818 99.1777V98.918V98.6582V98.3984V98.1387V97.8789V97.6191V97.3594V97.0996L40.9063 96.8407L40.9073 96.8398V96.5801L40.9063 96.5793L40.5818 96.3203L40.9063 96.0614L40.9073 96.0605L40.9063 96.0597L40.5818 95.8008V95.541V95.2813L40.9063 95.0223L40.9073 95.0215V94.7617L40.9063 94.7609L40.5818 94.502L40.9063 94.243L40.9073 94.2422V93.9824L40.9063 93.9816L40.5818 93.7227V93.4629L40.9063 93.2039L40.9073 93.2031L40.9063 93.2023L40.5818 92.9434L40.9063 92.6844L40.9073 92.6836L40.9063 92.6828L40.5818 92.4238V92.1641L40.9063 91.9051L40.9073 91.9043V91.6445V91.3848V91.125L40.9063 91.1242L40.5818 90.8652V90.6055V90.3457V90.0859V89.8262V89.5664V89.3066V89.0469V88.7871L40.9063 88.5282L40.9073 88.5273L40.9063 88.5265L40.5818 88.2676V88.0078V87.7481V87.4883V87.2285V86.9688V86.709L40.9063 86.45L40.9073 86.4492L40.9063 86.4484L40.5818 86.1895V85.9297V85.6699V85.4102V85.1504V84.8906V84.6309V84.3711V84.1113V83.8516V83.5918V83.332V83.0723V82.8125V82.5527V82.293V82.0332V81.7734V81.5137V81.2539V80.9941V80.7344V80.4746V80.2148V79.9551V79.6953V79.4356V79.1758V78.916V78.6563V78.3965V78.1367V77.877V77.6172V77.3574V77.0977V76.8379V76.5781V76.3184V76.0586V75.7988V75.5391V75.2793V75.0195V74.7598V74.5L40.9063 74.241L40.9073 74.2402L40.9063 74.2394L40.5818 73.9805V73.7207V73.4609V73.2012V72.9414V72.6816V72.4219V72.1621V71.9023V71.6426V71.3828L40.9063 71.1239L40.9073 71.1231L40.9063 71.1222L40.5818 70.8633V70.6035V70.3438V70.084V69.8242V69.5645V69.3047V69.0449V68.7852V68.5254V68.2656V68.0059V67.7461V67.4863V67.2266V66.9668V66.707V66.4473V66.1875V65.9277V65.668V65.4082V65.1484V64.8887V64.6289V64.3691V64.1094V63.8496V63.5898V63.3301V63.0703V62.8106V62.5508V62.291V62.0313V61.7715V61.5117V61.252V60.9922V60.7324V60.4727V60.2129V59.9531V59.6934V59.4336V59.1738V58.9141V58.6543V58.3945V58.1348V57.875V57.6152V57.3555V57.0957V56.8359V56.5762V56.3164V56.0566V55.7969V55.5371V55.2773V55.0176V54.7578V54.4981V54.2383V53.9785V53.7188V53.459V53.1992V52.9395V52.6797V52.4199V52.1602V51.9004V51.6406V51.3809V51.1211V50.8613V50.6016V50.3418V50.082V49.8223V49.5625V49.3027V49.043V48.7832V48.5234V48.2637V48.0039V47.7441V47.4844V47.2246V46.9648V46.7051V46.4453V46.1856V45.9258V45.666V45.4063V45.1465V44.8867V44.627V44.3672V44.1074V43.8477V43.5879V43.3281V43.0684V42.8086V42.5488V42.2891V42.0293V41.7695V41.5098V41.25V40.9902V40.7305V40.4707V40.2109V39.9512V39.6914V39.4316V39.1719V38.9121V38.6523V38.3926V38.1328V37.873V37.6133V37.3535V37.0938V36.834V36.5742V36.3145V36.0547V35.7949V35.5352V35.2754V35.0156V34.7559V34.4961V34.2363V33.9766V33.7168V33.457V33.1973V32.9375V32.6777V32.418V32.1582V31.8984V31.6387V31.3789V31.1191V30.8594V30.5996V30.3398V30.0801V29.8203V29.5605V29.3008V29.041V28.7813V28.5215V28.2617V28.002V27.7422V27.4824V27.2227V26.9629V26.7031V26.4434V26.1836V25.9238V25.6641V25.4043V25.1445V24.8848V24.625V24.3652V24.1055V23.8457V23.5859V23.3262V23.0664V22.8066V22.5469L40.9063 22.2879L40.9073 22.2871L41.2318 22.0282H41.5573H41.8829H42.2084H42.5339H42.8594H43.1849H43.5105H43.836H44.1615H44.487H44.8125H45.1381H45.4636H45.7891H46.1146H46.4402H46.7657H47.0912H47.4167H47.7422H48.0678H48.3933H48.7188H49.0443H49.3698H49.6954H50.0209H50.3464H50.6719H50.9974H51.323H51.6485H51.974H52.2995H52.625H52.9506H53.2761H53.6016H53.9271H54.2527H54.5782H54.9037H55.2292H55.5547H55.8803H56.2058H56.5313H56.8568H57.1823H57.5079H57.8334H58.1589H58.4844H58.8099H59.1355H59.461H59.7865H60.112H60.4375H60.7631H61.0886H61.4141H61.7396H62.0652H62.3907H62.7162H63.0417H63.3672H63.6928H64.0183H64.3438H64.6693H64.9948H65.3204H65.6459H65.9714H66.2969H66.6224H66.948H67.2735H67.599H67.9245H68.2501H68.5756H68.9011H69.2266H69.5521H69.8777H70.2032H70.5287H70.8542H71.1797H71.5053H71.8308H72.1563H72.4818H72.8073H73.1329H73.4584H73.7839H74.1094H74.4349H74.7605H75.086H75.4115H75.737H76.0626H76.3881H76.7136H77.0391H77.3646H77.6902H78.0157H78.3412H78.6667H78.9922H79.3178H79.6433H79.9688H80.2943H80.6198H80.9454H81.2709H81.5964H81.9219H82.2474H82.573H82.8985H83.224H83.5495H83.8751H84.2006H84.5261H84.8516H85.1771H85.5027H85.8282H86.1537H86.4792H86.8047H87.1303H87.4558H87.7813H88.1068H88.4323H88.7579H89.0834H89.4089H89.7344H90.0599H90.3855H90.711H91.0365H91.362H91.6876H92.0131H92.3386H92.6641H92.9896H93.3152H93.6407H93.9662H94.2917H94.6172H94.9428H95.2683H95.5938H95.9193H96.2448H96.5704H96.8959H97.2214H97.5469H97.8724H98.198H98.5235H98.849H99.1745H99.5001H99.8256H100.151H100.477H100.802H101.128H101.453H101.779H102.104H102.43H102.755H103.081H103.406H103.732H104.057H104.383H104.708H105.034H105.359H105.685H106.01H106.336H106.662H106.987H107.313H107.638H107.964H108.289H108.615H108.94H109.266H109.591H109.917H110.242H110.568H110.893H111.219H111.544H111.87H112.195H112.521H112.846H113.172H113.497H113.823H114.148H114.474H114.8H115.125H115.451H115.776H116.102H116.427H116.753H117.078H117.404H117.729H118.055H118.38H118.706H119.031H119.357H119.682H120.008H120.333H120.659H120.984H121.31H121.635H121.961H122.287H122.612H122.938H123.263H123.589H123.914H124.24H124.565H124.891H125.216H125.542H125.867H126.193H126.518H126.844H127.169H127.495H127.82H128.146H128.471H128.797H129.122H129.448H129.773H130.099H130.425H130.75H131.076H131.401H131.727H132.052H132.378H132.703H133.029H133.354H133.68H134.005H134.331H134.656H134.982H135.307H135.633H135.958H136.284H136.609H136.935H137.26H137.586H137.912H138.237H138.563H138.888H139.214H139.539H139.865H140.19H140.516H140.841H141.167H141.492H141.818H142.143H142.469H142.794H143.12H143.445H143.771H144.096H144.422H144.747H145.073H145.398H145.724H146.05H146.375H146.701H147.026H147.352H147.677H148.003H148.328H148.654H148.979H149.305H149.63H149.956H150.281H150.607H150.932H151.258H151.583H151.909H152.234H152.56H152.885H153.211H153.537H153.862H154.188H154.513H154.839H155.164H155.49H155.815H156.141H156.466H156.792H157.117H157.443H157.768H158.094H158.419H158.745H159.07H159.396H159.721H160.047H160.372H160.698H161.023H161.349H161.675H162H162.326H162.651H162.977H163.302H163.628H163.953H164.279H164.604H164.93H165.255H165.581H165.906H166.232H166.557H166.883H167.208H167.534H167.859H168.185H168.51H168.836H169.162H169.487H169.813H170.138H170.464H170.789H171.115H171.44H171.766H172.091H172.417H172.742H173.068H173.393H173.719H174.044H174.37H174.695H175.021H175.346H175.672H175.997H176.323H176.648H176.974H177.3H177.625H177.951H178.276H178.602H178.927H179.253H179.578H179.904H180.229H180.555H180.88H181.206H181.531H181.857H182.182H182.508H182.833H183.159H183.484H183.81H184.135H184.461H184.787H185.112H185.438H185.763H186.089H186.414H186.74H187.065H187.391H187.716H188.042H188.367H188.693H189.018H189.344H189.669H189.995H190.32H190.646H190.971H191.297H191.622H191.948H192.273H192.599H192.925H193.25H193.576H193.901H194.227H194.552H194.878H195.203H195.529H195.854H196.18H196.505H196.831H197.156H197.482H197.807H198.133H198.458H198.784H199.109H199.435H199.76H200.086H200.412H200.737H201.063H201.388H201.714H202.039H202.365H202.69H203.016H203.341H203.667H203.992H204.318H204.643H204.969H205.294H205.62H205.945H206.271H206.596H206.922H207.247H207.573H207.898H208.224H208.55H208.875H209.201H209.526H209.852H210.177H210.503H210.828H211.154H211.479H211.805H212.13H212.456H212.781H213.107H213.432H213.758H214.083H214.409H214.734H215.06H215.385H215.711H216.037H216.362H216.688H217.013H217.339H217.664H217.99H218.315H218.641H218.966H219.292H219.617H219.943H220.268H220.594H220.919H221.245H221.57H221.896H222.221H222.547H222.872H223.198H223.523H223.849H224.175H224.5H224.826H225.151H225.477H225.802H226.128H226.453H226.779H227.104H227.43H227.755H228.081H228.406H228.732H229.057H229.383H229.708H230.034H230.359H230.685H231.01H231.336H231.662H231.987H232.313H232.638H232.964H233.289H233.615H233.94H234.266H234.591H234.917H235.242H235.568H235.893H236.219H236.544H236.87H237.195H237.521H237.846H238.172H238.497H238.823H239.148H239.474H239.8H240.125H240.451H240.776H241.102H241.427H241.753H242.078H242.404H242.729H243.055H243.38H243.706H244.031H244.357H244.682H245.008H245.333H245.659H245.984H246.31H246.635H246.961H247.287H247.612H247.938H248.263H248.589H248.914H249.24H249.565H249.891H250.216H250.542H250.867H251.193H251.518H251.844H252.169H252.495H252.82H253.146H253.471H253.797H254.122H254.448H254.773H255.099H255.425H255.75H256.076H256.401H256.727H257.052H257.378H257.703H258.029H258.354H258.68H259.005H259.331H259.656H259.982H260.307H260.633H260.958H261.284H261.609H261.935H262.26H262.586H262.912H263.237H263.563H263.888H264.214H264.539H264.865H265.19H265.516H265.841H266.167H266.492H266.818H267.143H267.469H267.794H268.12H268.445H268.771H269.096H269.422H269.747H270.073H270.398H270.724H271.05H271.375H271.701H272.026H272.352H272.677H273.003H273.328H273.654H273.979H274.305H274.63H274.956H275.281H275.607H275.932H276.258H276.583H276.909H277.234H277.56H277.885H278.211H278.537H278.862H279.188H279.513H279.839H280.164H280.49H280.815H281.141H281.466H281.792H282.117H282.443H282.768H283.094H283.419H283.745H284.07H284.396H284.721H285.047H285.372H285.698H286.023H286.349H286.675H287H287.326H287.651H287.977H288.302H288.628H288.953H289.279H289.604H289.93H290.255H290.581H290.906H291.232H291.557H291.883H292.208H292.534H292.859H293.185H293.51H293.836H294.162H294.487H294.813H295.138H295.464H295.789H296.115H296.44H296.766H297.091H297.417H297.742H298.068H298.393H298.719H299.044H299.37H299.695H300.021H300.346H300.672H300.997H301.323H301.648H301.974H302.3H302.625H302.951H303.276H303.602H303.927H304.253H304.578H304.904H305.229H305.555H305.88H306.206H306.531H306.857H307.182H307.508H307.833H308.159H308.484H308.81H309.135H309.461H309.787H310.112H310.438H310.763H311.089H311.414H311.74H312.065H312.391H312.716H313.042H313.367H313.693H314.018H314.344H314.669H314.995H315.32H315.646H315.971H316.297H316.622H316.948H317.273H317.599H317.925H318.25H318.576H318.901H319.227H319.552H319.878H320.203H320.529H320.854H321.18H321.505H321.831H322.156H322.482H322.807H323.133H323.458H323.784H324.109H324.435H324.76H325.086H325.412H325.737H326.063H326.388H326.714H327.039H327.365H327.69H328.016H328.341H328.667H328.992H329.318H329.643H329.969H330.294H330.62H330.945H331.271H331.596H331.922H332.247H332.573H332.898H333.224H333.55H333.875H334.201H334.526H334.852H335.177H335.503H335.828H336.154H336.479H336.805H337.13H337.456H337.781H338.107H338.432H338.758H339.083H339.409H339.734H340.06H340.385H340.711H341.037H341.362H341.688H342.013H342.339H342.664H342.99H343.315H343.641H343.966H344.292H344.617H344.943H345.268H345.594H345.919H346.245H346.57H346.896H347.221H347.547H347.872H348.198H348.523H348.849H349.175H349.5H349.826H350.151H350.477H350.802H351.128H351.453H351.779H352.104H352.43H352.755H353.081H353.406H353.732H354.057H354.383H354.708H355.034H355.359H355.685H356.01H356.336H356.662H356.987H357.313H357.638H357.964H358.289H358.615H358.94H359.266H359.591H359.917H360.242H360.568H360.893H361.219H361.544H361.87H362.195H362.521H362.846H363.172H363.497H363.823H364.148H364.474H364.8H365.125H365.451H365.776H366.102H366.427H366.753H367.078H367.404H367.729H368.055H368.38H368.706H369.031H369.357H369.682H370.008H370.333H370.659H370.984H371.31H371.635H371.961H372.287H372.612H372.938H373.263H373.589H373.914H374.24H374.565H374.891H375.216H375.542H375.867H376.193H376.518H376.844H377.169H377.495H377.82H378.146H378.471H378.797H379.122H379.448H379.774H380.099H380.425H380.75H381.076H381.401H381.727H382.052H382.378H382.703H383.029H383.354H383.68H384.005H384.331H384.656H384.982H385.307H385.633H385.958H386.284H386.609H386.935H387.26H387.586H387.912H388.237H388.563H388.888H389.214H389.539H389.865H390.19H390.516H390.841H391.167H391.492H391.818H392.143H392.469H392.794H393.12H393.445H393.771H394.096H394.422H394.747H395.073H395.399H395.724H396.05H396.375H396.701H397.026H397.352H397.677H398.003H398.328H398.654H398.979H399.305H399.63H399.956H400.281H400.607H400.932H401.258H401.583H401.909H402.234H402.56H402.885H403.211H403.537H403.862H404.188H404.513H404.839H405.164H405.49H405.815H406.141H406.466H406.792H407.117H407.443H407.768H408.094H408.419H408.745H409.07H409.396H409.721H410.047H410.372H410.698H411.024H411.349H411.675H412H412.326H412.651H412.977H413.302H413.628H413.953H414.279H414.604H414.93H415.255H415.581H415.906H416.232H416.557H416.883H417.208H417.534H417.859H418.185H418.51H418.836H419.162H419.487H419.813H420.138H420.464H420.789H421.115H421.44H421.766H422.091H422.417H422.742H423.068H423.393H423.719H424.044H424.37H424.695H425.021H425.346H425.672H425.997H426.323H426.649H426.974H427.3H427.625H427.951H428.276H428.602H428.927H429.253H429.578H429.904H430.229H430.555H430.88H431.206H431.531H431.857H432.182H432.508H432.833H433.159H433.484H433.81H434.135H434.461H434.787H435.112H435.438H435.763H436.089H436.414H436.74H437.065H437.391H437.716H438.042H438.367H438.693H439.018H439.344H439.669H439.995H440.32H440.646H440.971H441.297H441.622H441.948H442.274H442.599H442.925H443.25H443.576H443.901H444.227H444.552H444.878H445.203H445.529H445.854H446.18H446.505H446.831H447.156H447.482H447.807H448.133H448.458H448.784H449.109H449.435H449.76H450.086H450.412H450.737H451.063H451.388H451.714H452.039H452.365H452.69H453.016H453.341H453.667H453.992H454.318H454.643H454.969H455.294H455.62H455.945H456.271H456.596H456.922H457.247H457.573H457.899H458.224H458.55H458.875H459.201H459.526H459.852H460.177H460.503H460.828H461.154H461.479H461.805H462.13H462.456H462.781H463.107H463.432H463.758H464.083H464.409H464.734H465.06H465.385H465.711H466.037H466.362H466.688H467.013H467.339H467.664H467.99H468.315H468.641H468.966H469.292H469.617H469.943H470.268H470.594H470.919H471.245H471.57H471.896H472.221H472.547H472.872H473.198H473.524H473.849H474.175H474.5H474.826H475.151H475.477H475.802H476.128H476.453H476.779H477.104H477.43H477.755H478.081H478.406H478.732H479.057H479.383H479.708H480.034H480.359H480.685H481.01H481.336H481.662H481.987H482.313H482.638H482.964H483.289H483.615H483.94H484.266H484.591H484.917H485.242H485.568H485.893H486.219H486.544H486.87H487.195H487.521H487.846H488.172H488.497H488.823H489.149H489.474H489.8H490.125H490.451H490.776H491.102H491.427H491.753H492.078H492.404H492.729H493.055H493.38H493.706H494.031H494.357H494.682H495.008H495.333H495.659H495.984H496.31H496.635H496.961H497.287H497.612H497.938H498.263H498.589H498.914H499.24H499.565H499.891H500.216H500.542H500.867H501.193H501.518H501.844H502.169H502.495H502.82H503.146H503.471H503.797H504.122H504.448H504.774H505.099H505.425H505.75H506.076H506.401H506.727H507.052H507.378H507.703H508.029H508.354H508.68H509.005H509.331H509.656H509.982H510.307H510.633H510.958H511.284H511.609H511.935H512.26H512.586H512.912H513.237H513.563H513.888H514.214H514.539H514.865H515.19H515.516H515.841H516.167H516.492H516.818H517.143H517.469H517.794H518.12H518.445H518.771H519.096H519.422H519.747H520.073L520.398 22.2871V22.5469V22.8066V23.0664V23.3262V23.5859V23.8457V24.1055V24.3652V24.625V24.8848V25.1445V25.4043V25.6641V25.9238V26.1836V26.4434V26.7031V26.9629V27.2227V27.4824V27.7422V28.002V28.2617V28.5215V28.7813V29.041V29.3008V29.5605V29.8203V30.0801V30.3398V30.5996V30.8594V31.1191V31.3789V31.6387V31.8984V32.1582V32.418V32.6777V32.9375V33.1973V33.457V33.7168V33.9766V34.2363V34.4961V34.7559V35.0156V35.2754V35.5352V35.7949V36.0547V36.3145V36.5742V36.834V37.0938V37.3535V37.6133V37.873V38.1328V38.3926V38.6523V38.9121V39.1719V39.4316V39.6914V39.9512V40.2109V40.4707V40.7305V40.9902V41.25V41.5098V41.7695V42.0293V42.2891V42.5488V42.8086V43.0684V43.3281V43.5879V43.8477V44.1074V44.3672V44.627V44.8867V45.1465V45.4063V45.666V45.9258V46.1856V46.4453V46.7051V46.9648V47.2246V47.4844V47.7441V48.0039V48.2637V48.5234V48.7832V49.043V49.3027V49.5625V49.8223V50.082V50.3418V50.6016V50.8613V51.1211V51.3809V51.6406V51.9004V52.1602V52.4199V52.6797V52.9395V53.1992V53.459V53.7188V53.9785V54.2383V54.4981V54.7578V55.0176V55.2773V55.5371V55.7969V56.0566V56.3164V56.5762V56.8359V57.0957V57.3555V57.6152V57.875V58.1348V58.3945V58.6543V58.9141V59.1738V59.4336V59.6934V59.9531V60.2129V60.4727V60.7324V60.9922V61.252V61.5117V61.7715V62.0313V62.291V62.5508V62.8106V63.0703V63.3301V63.5898V63.8496V64.1094V64.3691V64.6289V64.8887V65.1484V65.4082V65.668V65.9277V66.1875V66.4473V66.707V66.9668V67.2266V67.4863V67.7461V68.0059V68.2656V68.5254V68.7852V69.0449V69.3047V69.5645V69.8242V70.084V70.3438V70.6035V70.8633V71.1231V71.3828V71.6426V71.9023V72.1621V72.4219V72.6816V72.9414V73.2012V73.4609V73.7207V73.9805V74.2402V74.5V74.7598V75.0195V75.2793V75.5391V75.7988V76.0586V76.3184V76.5781V76.8379V77.0977V77.3574V77.6172V77.877V78.1367V78.3965V78.6563V78.916V79.1758V79.4356V79.6953V79.9551V80.2148V80.4746V80.7344V80.9941V81.2539V81.5137V81.7734V82.0332V82.293V82.5527V82.8125V83.0723V83.332V83.5918V83.8516V84.1113V84.3711V84.6309V84.8906V85.1504V85.4102V85.6699V85.9297V86.1895V86.4492V86.709V86.9688V87.2285V87.4883V87.7481V88.0078V88.2676V88.5273V88.7871V89.0469V89.3066V89.5664V89.8262V90.0859V90.3457V90.6055V90.8652V91.125V91.3848V91.6445V91.9043V92.1641V92.4238V92.6836V92.9434V93.2031V93.4629V93.7227V93.9824V94.2422V94.502V94.7617V95.0215V95.2813V95.541V95.8008V96.0605V96.3203V96.5801V96.8398V97.0996V97.3594V97.6191V97.8789V98.1387V98.3984V98.6582V98.918V99.1777V99.4375V99.6973V99.957V100.217V100.477V100.736V100.996V101.256V101.516V101.775V102.035V102.295V102.555V102.814V103.074V103.334V103.594V103.854V104.113V104.373V104.633V104.893V105.152V105.412V105.672V105.932V106.191V106.451V106.711V106.971V107.23V107.49V107.75V108.01V108.27V108.529V108.789V109.049V109.309V109.568V109.828V110.088V110.348V110.607V110.867V111.127V111.387V111.646V111.906V112.166V112.426V112.686V112.945V113.205V113.465V113.725V113.984V114.244V114.504V114.764V115.023V115.283V115.543V115.803V116.063V116.322V116.582V116.842V117.102V117.361V117.621V117.881V118.141V118.4V118.66V118.92V119.18V119.439V119.699V119.959V120.219V120.479V120.738V120.998V121.258V121.518V121.777V122.037V122.297V122.557V122.816V123.076V123.336V123.596V123.855V124.115V124.375V124.635V124.895V125.154V125.414V125.674V125.934V126.193V126.453V126.713V126.973V127.232V127.492V127.752V128.012V128.271V128.531V128.791V129.051V129.311V129.57V129.83V130.09V130.35V130.609V130.869V131.129V131.389V131.648V131.908V132.168V132.428V132.688V132.947V133.207V133.467V133.727V133.986V134.246V134.506V134.766V135.025V135.285V135.545V135.805V136.064V136.324V136.584V136.844V137.104V137.363V137.623V137.883V138.143V138.402V138.662V138.922V139.182V139.441V139.701V139.961V140.221V140.48V140.74V141V141.26V141.52V141.779V142.039V142.299V142.559V142.818V143.078V143.338V143.598V143.857V144.117V144.377V144.637V144.896V145.156V145.416V145.676V145.936V146.195V146.455V146.715V146.975V147.234V147.494V147.754V148.014V148.273V148.533V148.793V149.053V149.313V149.572V149.832V150.092V150.352V150.611V150.871V151.131V151.391V151.65V151.91V152.17V152.43V152.689V152.949V153.209V153.469V153.729V153.988V154.248V154.508V154.768V155.027V155.287V155.547V155.807V156.066V156.326V156.586V156.846V157.105V157.365V157.625V157.885V158.145V158.404V158.664V158.924V159.184V159.443V159.703V159.963V160.223V160.482V160.742V161.002V161.262V161.521V161.781V162.041V162.301V162.561V162.82V163.08V163.34V163.6V163.859V164.119V164.379V164.639V164.898V165.158V165.418V165.678V165.938V166.197V166.457V166.717V166.977V167.236V167.496V167.756V168.016V168.275V168.535V168.795V169.055V169.314V169.574V169.834V170.094V170.354V170.613V170.873V171.133V171.393V171.652V171.912V172.172V172.432V172.691V172.951V173.211V173.471V173.73V173.99V174.25V174.51V174.77V175.029V175.289V175.549V175.809V176.068V176.328V176.588V176.848V177.107V177.367V177.627V177.887V178.146V178.406V178.666V178.926V179.186V179.445V179.705V179.965V180.225V180.484V180.744V181.004V181.264V181.523V181.783V182.043V182.303V182.563V182.822V183.082V183.342V183.602V183.861V184.121V184.381V184.641V184.9V185.16V185.42V185.68V185.939V186.199V186.459V186.719V186.979V187.238V187.498V187.758V188.018V188.277V188.537V188.797V189.057V189.316V189.576V189.836V190.096V190.355V190.615V190.875V191.135V191.395V191.654V191.914V192.174V192.434V192.693V192.953V193.213V193.473V193.732V193.992V194.252V194.512V194.771V195.031V195.291V195.551V195.811V196.07V196.33V196.59V196.85V197.109V197.369V197.629V197.889V198.148V198.408V198.668V198.928V199.188V199.447V199.707V199.967V200.227V200.486V200.746V201.006V201.266V201.525V201.785V202.045V202.305V202.564V202.824V203.084V203.344V203.604V203.863V204.123V204.383V204.643V204.902V205.162V205.422V205.682V205.941V206.201V206.461V206.721V206.98V207.24V207.5V207.76V208.02V208.279V208.539V208.799V209.059V209.318V209.578V209.838V210.098V210.357V210.617V210.877V211.137V211.396V211.656V211.916V212.176V212.436V212.695V212.955V213.215V213.475V213.734V213.994V214.254V214.514V214.773V215.033V215.293V215.553V215.813V216.072V216.332V216.592V216.852V217.111V217.371V217.631V217.891V218.15V218.41V218.67V218.93V219.189V219.449V219.709V219.969V220.229V220.488V220.748V221.008V221.268V221.527V221.787V222.047V222.307V222.566V222.826V223.086V223.346V223.605V223.865V224.125V224.385V224.645V224.904V225.164V225.424V225.684V225.943V226.203V226.463V226.723V226.982V227.242V227.502V227.762V228.021V228.281V228.541V228.801V229.061V229.32V229.58V229.84V230.1V230.359V230.619V230.879V231.139V231.398V231.658V231.918V232.178V232.438V232.697V232.957V233.217V233.477V233.736V233.996V234.256V234.516V234.775V235.035V235.295V235.555V235.814V236.074V236.334V236.594V236.854V237.113V237.373V237.633V237.893V238.152V238.412V238.672V238.932V239.191V239.451V239.711V239.971V240.23V240.49V240.75V241.01V241.27V241.529V241.789V242.049V242.309V242.568V242.828V243.088V243.348V243.607V243.867V244.127V244.387V244.646V244.906V245.166V245.426V245.686V245.945V246.205V246.465V246.725V246.984V247.244V247.504V247.764V248.023V248.283V248.543V248.803V249.063V249.322V249.582V249.842V250.102V250.361V250.621V250.881V251.141V251.4V251.66V251.92V252.18V252.439V252.699V252.959V253.219V253.479V253.738V253.998V254.258V254.518V254.777V255.037V255.297V255.557V255.816V256.076V256.336V256.596V256.855V257.115V257.375V257.635L520.073 257.894Z" stroke="white"/>
<path d="M282.118 168.795L282.443 168.536H282.768H283.094H283.419H283.745H284.07H284.396H284.721H285.047H285.372L285.373 168.535L285.698 168.276H286.023H286.349H286.674H287H287.326L287.327 168.275L287.651 168.016H287.977H288.302H288.628L288.629 168.016L288.953 167.757H289.279H289.604L289.605 167.756L289.93 167.497H290.255H290.581H290.906L290.907 167.496L291.232 167.237H291.557L291.558 167.236L291.883 166.977H292.208H292.534L292.535 166.977L292.859 166.718H293.185L293.186 166.717L293.51 166.458H293.836H294.161L294.162 166.457L294.487 166.198H294.812L294.814 166.197L295.138 165.938H295.464L295.465 165.937L295.789 165.679H296.115L296.116 165.678L296.44 165.419H296.766L296.767 165.418L297.091 165.159L297.092 165.158L297.417 164.899H297.742L297.743 164.898L298.068 164.639H298.393L298.394 164.639L298.719 164.38L298.72 164.379L299.044 164.12H299.37L299.371 164.119L299.695 163.86L299.696 163.859L300.021 163.6H300.346L300.347 163.6L300.672 163.341L300.673 163.34L300.997 163.081L300.998 163.08L301.323 162.821H301.648L301.649 162.82L301.974 162.561L301.975 162.561L302.299 162.302L302.3 162.301L302.625 162.042H302.951L302.952 162.041L303.276 161.782L303.277 161.781L303.602 161.522L303.603 161.521L303.927 161.263L303.928 161.262L304.253 161.003L304.254 161.002L304.578 160.743L304.579 160.742L304.904 160.483L304.905 160.482L305.229 160.223L305.23 160.223L305.555 159.964L305.556 159.963L305.88 159.704L305.881 159.703L306.206 159.444L306.207 159.443V159.184L306.531 158.925L306.532 158.924L306.857 158.665L306.858 158.664L307.182 158.405L307.183 158.404L307.508 158.145L307.509 158.145L307.833 157.886L307.834 157.885L308.159 157.626L308.16 157.625V157.365L308.484 157.106L308.485 157.105L308.81 156.847L308.811 156.846L309.135 156.587L309.136 156.586V156.326L309.461 156.067L309.462 156.066L309.786 155.807L309.787 155.807V155.547L310.112 155.288L310.113 155.287L310.437 155.028L310.439 155.027V154.768L310.763 154.509L310.764 154.508V154.248L311.089 153.989L311.09 153.988L311.414 153.729L311.415 153.729V153.469L311.74 153.21L311.741 153.209V152.949L312.065 152.69L312.066 152.689V152.43L312.391 152.171L312.392 152.17V151.91V151.65L312.716 151.391L312.717 151.391V151.131L313.042 150.872L313.043 150.871V150.611L313.367 150.352L313.368 150.352V150.092V149.832L313.693 149.573L313.694 149.572V149.312V149.053L314.018 148.794L314.019 148.793V148.533V148.273V148.014L314.344 147.755L314.345 147.754V147.494V147.234V146.975L314.669 146.716L314.67 146.715V146.455V146.195V145.936L314.995 145.677L314.996 145.676V145.416V145.156V144.896V144.637V144.377L315.32 144.118L315.321 144.117V143.857V143.598V143.338V143.078V142.818V142.559V142.299L315.646 142.04L315.647 142.039V141.779V141.52V141.26V141V140.74V140.48V140.221V139.961V139.701V139.441V139.182V138.922V138.662V138.402V138.143V137.883V137.623V137.363V137.104V136.844V136.584V136.324L315.646 136.323L315.321 136.064V135.805V135.545V135.285V135.025V134.766V134.506V134.246L315.32 134.245L314.996 133.986V133.727V133.467V133.207V132.947V132.687L314.995 132.687L314.67 132.428V132.168V131.908V131.648L314.669 131.648L314.345 131.389V131.129V130.869V130.609L314.344 130.609L314.019 130.35V130.09V129.83L314.018 129.829L313.694 129.57V129.311V129.051L313.693 129.05L313.368 128.791V128.531V128.271L313.367 128.271L313.043 128.012V127.752V127.492L313.042 127.491L312.717 127.232V126.973L312.716 126.972L312.392 126.713V126.453V126.193L312.391 126.193L312.066 125.934V125.674L312.065 125.673L311.741 125.414V125.154L311.74 125.153L311.415 124.895L311.414 124.894L311.09 124.635V124.375L311.089 124.374L310.764 124.115V123.855L310.763 123.855L310.439 123.596V123.336L310.437 123.335L310.113 123.076L310.112 123.075L309.787 122.816V122.557L309.786 122.556L309.462 122.297L309.461 122.296L309.136 122.037V121.777L309.135 121.777L308.811 121.518L308.81 121.517L308.485 121.258L308.484 121.257L308.16 120.998V120.738L308.159 120.737L307.834 120.479L307.833 120.478L307.509 120.219L307.508 120.218L307.183 119.959L307.182 119.958L306.858 119.699L306.857 119.698L306.532 119.439L306.531 119.439L306.207 119.18L306.206 119.179L305.881 118.92L305.88 118.919L305.556 118.66L305.555 118.659L305.23 118.4L305.229 118.4L304.905 118.141L304.904 118.14L304.579 117.881L304.578 117.88L304.254 117.621L304.253 117.62L303.928 117.361L303.927 117.361L303.603 117.102L303.602 117.101H303.276L302.952 116.842L302.951 116.841L302.626 116.582L302.625 116.581L302.3 116.322L302.299 116.321L301.975 116.062L301.974 116.062H301.648L301.324 115.803L301.323 115.802L300.998 115.543L300.997 115.542H300.672L300.347 115.283L300.346 115.282L300.022 115.023L300.021 115.023H299.695L299.371 114.764L299.37 114.763L299.045 114.504L299.044 114.503H298.719L298.394 114.244L298.393 114.243L298.069 113.984L298.068 113.984H297.742L297.418 113.725L297.417 113.724H297.091L296.767 113.465L296.766 113.464H296.44L296.116 113.205L296.115 113.204L295.79 112.945L295.789 112.945H295.464L295.139 112.686L295.138 112.685H294.812H294.487L294.162 112.426L294.161 112.425H293.836L293.511 112.166L293.51 112.165H293.185L292.86 111.906L292.859 111.905H292.534H292.208L291.884 111.646L291.883 111.646H291.557L291.233 111.387L291.232 111.386H290.906H290.581H290.255L289.931 111.127L289.93 111.126H289.604H289.279L288.954 110.867L288.953 110.866H288.628H288.302H287.977L287.652 110.607L287.651 110.607H287.326H287H286.674H286.349H286.023L285.699 110.348L285.698 110.347H285.372H285.047H284.721H284.396H284.07H283.745H283.419H283.094H282.768H282.443H282.117L281.793 110.088L281.792 110.087L281.791 110.088V110.348V110.607V110.867V111.127V111.387V111.646V111.906V112.166V112.426V112.686V112.945V113.205V113.465V113.725V113.984V114.244V114.504V114.764V115.023V115.283V115.543V115.803V116.062V116.322V116.582V116.842V117.102V117.361V117.621V117.881V118.141V118.4V118.66V118.92V119.18V119.439V119.699V119.959V120.219V120.479V120.738V120.998V121.258V121.518V121.777V122.037V122.297V122.557V122.816V123.076V123.336V123.596V123.855V124.115V124.375V124.635V124.895V125.154V125.414V125.674V125.934V126.193V126.453V126.713V126.973V127.232V127.492V127.752V128.012L281.792 128.013H282.117H282.443L282.767 128.271L282.768 128.272H283.094H283.419H283.745H284.07L284.395 128.531L284.396 128.532H284.721H285.047H285.372L285.697 128.791L285.698 128.792H286.023L286.348 129.051L286.349 129.052H286.674L286.999 129.311L287 129.311L287.325 129.57L287.326 129.571H287.651L287.976 129.83L287.977 129.831L288.301 130.09L288.302 130.091L288.627 130.35L288.628 130.35H288.953L289.278 130.609L289.279 130.61L289.603 130.869L289.604 130.87L289.929 131.129L289.93 131.13L290.254 131.389L290.255 131.389L290.58 131.648V131.908L290.581 131.909L290.905 132.168L290.906 132.169L291.231 132.428L291.232 132.429L291.556 132.687V132.947L291.557 132.948L291.882 133.207V133.467L291.883 133.468L292.207 133.727V133.986L292.208 133.987L292.533 134.246L292.534 134.247L292.858 134.506V134.766V135.025L292.859 135.026L293.184 135.285V135.545L293.185 135.546L293.509 135.805V136.064V136.324L293.51 136.325L293.835 136.584V136.844V137.104V137.363L293.836 137.364L294.16 137.623V137.883V138.143V138.402V138.662V138.922V139.182V139.441V139.701V139.961V140.221V140.48V140.74L293.836 140.999L293.835 141V141.26V141.52V141.779L293.51 142.038L293.509 142.039V142.299V142.559L293.185 142.818L293.184 142.818V143.078L292.859 143.337L292.858 143.338V143.598L292.534 143.857L292.533 143.857V144.117L292.208 144.376L292.207 144.377V144.637L291.883 144.896L291.882 144.896L291.557 145.155L291.556 145.156V145.416L291.232 145.675L291.231 145.676L290.906 145.935L290.905 145.936L290.581 146.195L290.58 146.195L290.255 146.454L290.254 146.455L289.93 146.714L289.929 146.715L289.604 146.974L289.603 146.975L289.279 147.234L289.278 147.234L288.953 147.493L288.952 147.494L288.628 147.753L288.627 147.754L288.302 148.013L288.301 148.014L287.977 148.273L287.976 148.273L287.651 148.532L287.65 148.533L287.326 148.792H287L286.999 148.793L286.674 149.052H286.349L286.348 149.053L286.023 149.312L286.022 149.312L285.698 149.571H285.372L285.371 149.572L285.047 149.831H284.721H284.396L284.395 149.832L284.07 150.091H283.745H283.419L283.418 150.092L283.094 150.351H282.768H282.443H282.117H281.792L281.791 150.352V150.611V150.871V151.131V151.391V151.65V151.91V152.17V152.43V152.689V152.949V153.209V153.469V153.729V153.988V154.248V154.508V154.768V155.027V155.287V155.547V155.807V156.066V156.326V156.586V156.846V157.105V157.365V157.625V157.885V158.145V158.404V158.664V158.924V159.184V159.443V159.703V159.963V160.223V160.482V160.742V161.002V161.262V161.521V161.781V162.041V162.301V162.561V162.82V163.08V163.34V163.6V163.859V164.119V164.379V164.639V164.898V165.158V165.418V165.678V165.937V166.197V166.457V166.717V166.977V167.236V167.496V167.756V168.016V168.275V168.535V168.795L281.792 168.796H282.117L282.118 168.795Z" stroke="#DBDBDB"/>
<path d="M279.514 168.535L279.513 168.534L279.189 168.275V168.016V167.756V167.496V167.236V166.977V166.717V166.457V166.197V165.937V165.678V165.418V165.158V164.898V164.639V164.379V164.119V163.859V163.6V163.34V163.08V162.82V162.561V162.301V162.041V161.781V161.521V161.262V161.002V160.742V160.482V160.223V159.963V159.703V159.443V159.184V158.924V158.664V158.404V158.145V157.885V157.625V157.365V157.105V156.846V156.586V156.326V156.066V155.807V155.547V155.287V155.027V154.768V154.508V154.248V153.988V153.729V153.469V153.209V152.949V152.689V152.43V152.17V151.91V151.65V151.391V151.131V150.871L279.513 150.612L279.514 150.611L279.513 150.611L279.189 150.352L279.188 150.351H278.862H278.536H278.211H277.885H277.56L277.235 150.092L277.234 150.091H276.909H276.583L276.259 149.832L276.258 149.831H275.932H275.607L275.282 149.572L275.281 149.571H274.956L274.631 149.312L274.63 149.312L274.306 149.053L274.305 149.052H273.979L273.655 148.793L273.654 148.792L273.329 148.533L273.328 148.532L273.004 148.273L273.003 148.273H272.677L272.353 148.014L272.352 148.013L272.027 147.754L272.026 147.753L271.702 147.494L271.701 147.493L271.376 147.234L271.375 147.234L271.051 146.975V146.715L271.049 146.714L270.725 146.455L270.724 146.454L270.399 146.195L270.398 146.195L270.074 145.936V145.676L270.073 145.675L269.748 145.416L269.747 145.415L269.423 145.156V144.896L269.422 144.896L269.097 144.637V144.377L269.096 144.376L268.772 144.117V143.857L268.771 143.857L268.446 143.598V143.338L268.445 143.337L268.121 143.078V142.818L268.12 142.818L267.795 142.559V142.299V142.039V141.779L267.794 141.778L267.47 141.52V141.26V141V140.74V140.48L267.469 140.48L267.144 140.221V139.961V139.701V139.441V139.182V138.922V138.662L267.469 138.403L267.47 138.402V138.143V137.883V137.623V137.363L267.794 137.104L267.795 137.104V136.844V136.584L268.12 136.325L268.121 136.324V136.064V135.805L268.445 135.546L268.446 135.545V135.285V135.025L268.771 134.766L268.772 134.766V134.506L269.096 134.247L269.097 134.246V133.986V133.727L269.422 133.468L269.423 133.467L269.747 133.208L269.748 133.207V132.947L270.073 132.688L270.074 132.687L270.398 132.429L270.399 132.428L270.724 132.169L270.725 132.168L271.049 131.909L271.051 131.908L271.375 131.649L271.376 131.648L271.701 131.389L271.702 131.389L272.026 131.13L272.027 131.129L272.352 130.87L272.353 130.869L272.677 130.61H273.003L273.004 130.609L273.328 130.35L273.329 130.35L273.654 130.091H273.979L273.98 130.09L274.305 129.831L274.306 129.83L274.63 129.571H274.956L274.957 129.57L275.281 129.311H275.607L275.608 129.311L275.932 129.052H276.258L276.259 129.051L276.583 128.792H276.909L276.91 128.791L277.234 128.532H277.56H277.885L277.886 128.531L278.211 128.272H278.536H278.862H279.188L279.189 128.271L279.513 128.013L279.514 128.012L279.513 128.011L279.189 127.752V127.492V127.232V126.973V126.713V126.453V126.193V125.934V125.674V125.414V125.154V124.895V124.635V124.375V124.115V123.855V123.596V123.336V123.076V122.816V122.557V122.297V122.037V121.777V121.518V121.258V120.998V120.738V120.479V120.219L279.513 119.96L279.514 119.959V119.699V119.439V119.18V118.92L279.513 118.919L279.189 118.66V118.4V118.141L279.513 117.882L279.514 117.881V117.621V117.361V117.102V116.842V116.582V116.322V116.062V115.803V115.543V115.283V115.023V114.764V114.504V114.244V113.984V113.725V113.465V113.205V112.945V112.686V112.426V112.166V111.906V111.646V111.387V111.127V110.867V110.607V110.348L279.513 110.347H279.188H278.862H278.536H278.211H277.885H277.56H277.234H276.909H276.583H276.258L276.257 110.348L275.932 110.607H275.607H275.281H274.956H274.63H274.305L274.304 110.607L273.979 110.866H273.654H273.328H273.003H272.677L272.676 110.867L272.352 111.126H272.026H271.701H271.375L271.374 111.127L271.049 111.386H270.724H270.398H270.073L270.072 111.387L269.747 111.646H269.422H269.096L269.095 111.646L268.771 111.905H268.445L268.444 111.906L268.12 112.165H267.794H267.469L267.468 112.166L267.143 112.425H266.818L266.817 112.426L266.492 112.685H266.167L266.166 112.686L265.841 112.945H265.516L265.515 112.945L265.19 113.204H264.865L264.864 113.205L264.539 113.464H264.214L264.213 113.465L263.888 113.724H263.563L263.562 113.725L263.237 113.984L263.236 113.984L262.911 114.243H262.586L262.585 114.244L262.26 114.503L262.259 114.504L261.935 114.763H261.609L261.608 114.764L261.284 115.023L261.283 115.023L260.958 115.282H260.633L260.632 115.283L260.307 115.542L260.306 115.543L259.982 115.802H259.656L259.655 115.803L259.331 116.062L259.33 116.062L259.005 116.321L259.004 116.322L258.68 116.581L258.679 116.582L258.354 116.841H258.029L258.028 116.842L257.703 117.101L257.702 117.102L257.378 117.361L257.377 117.361L257.052 117.62L257.051 117.621L256.727 117.88L256.726 117.881L256.401 118.14L256.4 118.141L256.076 118.4L256.075 118.4L255.75 118.659L255.749 118.66L255.424 118.919L255.423 118.92L255.099 119.179L255.098 119.18L254.773 119.439L254.772 119.439L254.448 119.698L254.447 119.699L254.122 119.958L254.121 119.959L253.797 120.218L253.796 120.219V120.479L253.471 120.737L253.47 120.738L253.146 120.997L253.145 120.998L252.82 121.257L252.819 121.258V121.518L252.495 121.777L252.494 121.777L252.169 122.036L252.168 122.037L251.844 122.296L251.843 122.297V122.557L251.518 122.816L251.517 122.816V123.076L251.193 123.335L251.192 123.336L250.867 123.595L250.866 123.596V123.855L250.542 124.114L250.541 124.115L250.216 124.374L250.215 124.375V124.635L249.891 124.894L249.89 124.895V125.154L249.565 125.413L249.564 125.414V125.674L249.24 125.933L249.239 125.934V126.193L248.914 126.452L248.913 126.453V126.713L248.589 126.972L248.588 126.973V127.232L248.263 127.491L248.262 127.492V127.752L247.938 128.011L247.937 128.012V128.271L247.612 128.53L247.611 128.531V128.791V129.051L247.286 129.31L247.285 129.311V129.57L246.961 129.829L246.96 129.83V130.09V130.35V130.609L246.635 130.868L246.634 130.869V131.129V131.389L246.31 131.648L246.309 131.648V131.908V132.168V132.428V132.687L245.984 132.946L245.983 132.947V133.207V133.467V133.727V133.986V134.246L245.659 134.505L245.658 134.506V134.766V135.025V135.285V135.545V135.805V136.064V136.324L245.333 136.583L245.332 136.584V136.844V137.104V137.363V137.623V137.883V138.143V138.402V138.662V138.922V139.182V139.441V139.701V139.961V140.221V140.48V140.74V141L245.333 141.001L245.658 141.26V141.52V141.779V142.039V142.299V142.559V142.818V143.078V143.338V143.598V143.857L245.659 143.858L245.983 144.117V144.377V144.637V144.896V145.156L245.984 145.157L246.309 145.416V145.676V145.936V146.195V146.455L246.31 146.456L246.634 146.715V146.975V147.234V147.494L246.635 147.495L246.96 147.754V148.014V148.273L246.961 148.274L247.285 148.533V148.793V149.053L247.286 149.054L247.611 149.312V149.572L247.612 149.573L247.937 149.832V150.092V150.352L247.938 150.352L248.262 150.611V150.871L248.263 150.872L248.588 151.131V151.391V151.65L248.589 151.651L248.913 151.91V152.17L248.914 152.171L249.239 152.43V152.689L249.24 152.69L249.564 152.949V153.209L249.565 153.21L249.89 153.469V153.729L249.891 153.729L250.215 153.988V154.248L250.216 154.249L250.541 154.508V154.768L250.542 154.768L250.866 155.027V155.287L250.867 155.288L251.192 155.547L251.193 155.548L251.517 155.807V156.066L251.518 156.067L251.843 156.326L251.844 156.327L252.168 156.586V156.846L252.169 156.847L252.494 157.105L252.495 157.106L252.819 157.365V157.625L252.82 157.626L253.145 157.885L253.146 157.886L253.47 158.145L253.471 158.145L253.796 158.404V158.664L253.797 158.665L254.121 158.924L254.122 158.925L254.447 159.184L254.448 159.184L254.772 159.443L254.773 159.444L255.098 159.703L255.099 159.704L255.423 159.963L255.424 159.964L255.749 160.223L255.75 160.223L256.075 160.482L256.076 160.483L256.4 160.742L256.401 160.743L256.726 161.002L256.727 161.003L257.051 161.262L257.052 161.263L257.377 161.521L257.378 161.522L257.702 161.781L257.703 161.782L258.028 162.041L258.029 162.042H258.354L258.679 162.301L258.68 162.302L259.004 162.561L259.005 162.561L259.33 162.82L259.331 162.821L259.655 163.08L259.656 163.081H259.982L260.306 163.34L260.307 163.341L260.632 163.6L260.633 163.6H260.958L261.283 163.859L261.284 163.86L261.608 164.119L261.609 164.12H261.935L262.259 164.379L262.26 164.38L262.585 164.639L262.586 164.639H262.911L263.236 164.898L263.237 164.899L263.562 165.158L263.563 165.159H263.888L264.213 165.418L264.214 165.419H264.539L264.864 165.678L264.865 165.679H265.19L265.515 165.937L265.516 165.938H265.841L266.166 166.197L266.167 166.198H266.492L266.817 166.457L266.818 166.458H267.143L267.468 166.717L267.469 166.718H267.794L268.119 166.977L268.12 166.977H268.445L268.77 167.236L268.771 167.237H269.096H269.422L269.746 167.496L269.747 167.497H270.073H270.398L270.723 167.756L270.724 167.757H271.049H271.375H271.701L272.025 168.016L272.026 168.016H272.352H272.677H273.003H273.328L273.653 168.275L273.654 168.276H273.979H274.305H274.63H274.956H275.281H275.607L275.931 168.535L275.932 168.536H276.258H276.583H276.909H277.234H277.56H277.885H278.211H278.536H278.862H279.188H279.513L279.514 168.535Z" stroke="#DBDBDB"/>
<path d="M520 42.7254H440.642C440.606 42.7373 440.556 42.7534 440.493 42.7738C440.342 42.8233 440.116 42.8981 439.822 42.9989C439.232 43.2005 438.366 43.5061 437.262 43.9209C435.054 44.7505 431.897 46.0165 428.107 47.76C420.526 51.2474 410.418 56.6431 400.31 64.2748C380.1 79.5349 359.899 103.729 359.899 139.5C359.899 175.271 380.1 199.465 400.31 214.725C410.418 222.357 420.526 227.753 428.107 231.24C431.897 232.984 435.054 234.25 437.262 235.079C438.366 235.494 439.232 235.8 439.822 236.001C440.116 236.102 440.342 236.177 440.493 236.226C440.556 236.247 440.606 236.263 440.642 236.275H520V237H440.473L440.395 236.976L440.557 236.637C440.395 236.976 440.394 236.975 440.393 236.975L440.378 236.97C440.368 236.967 440.353 236.962 440.333 236.956C440.293 236.943 440.233 236.924 440.156 236.899C440 236.848 439.77 236.771 439.471 236.669C438.872 236.464 437.996 236.155 436.882 235.737C434.655 234.9 431.475 233.625 427.661 231.87C420.035 228.362 409.866 222.934 399.696 215.255C379.353 199.894 359 175.52 359 139.5C359 103.48 379.353 79.1059 399.696 63.745C409.866 56.0662 420.035 50.6383 427.661 47.1298C431.475 45.3753 434.655 44.1002 436.882 43.2632C437.996 42.8447 438.872 42.5357 439.471 42.3309C439.77 42.2286 440 42.1523 440.156 42.1014C440.233 42.076 440.293 42.0569 440.333 42.0441C440.353 42.0377 440.368 42.0329 440.378 42.0296L440.39 42.0259L440.393 42.0249C440.394 42.0246 440.395 42.0245 440.557 42.3627L440.395 42.0245L440.473 42H520V42.7254Z" fill="#DBDBDB"/>
<path d="M282.444 148.533L282.768 148.274H283.094H283.419L283.42 148.273L283.745 148.014H284.07L284.071 148.014L284.396 147.755H284.721L284.722 147.754L285.047 147.495H285.372L285.373 147.494L285.698 147.235L285.699 147.234L286.023 146.975H286.349L286.35 146.975L286.674 146.716L286.675 146.715L287 146.456L287.001 146.455L287.326 146.196L287.327 146.195L287.651 145.936H287.977L287.978 145.936L288.302 145.677L288.303 145.676L288.628 145.417L288.629 145.416L288.953 145.157L288.954 145.156L289.279 144.897L289.28 144.896V144.637L289.604 144.378L289.605 144.377L289.93 144.118L289.931 144.117L290.255 143.858L290.256 143.857V143.598L290.581 143.339L290.582 143.338V143.078L290.906 142.819L290.907 142.818V142.559L291.232 142.3L291.233 142.299V142.039V141.779L291.557 141.52L291.558 141.52V141.26V141V140.74V140.48L291.883 140.222L291.884 140.221V139.961V139.701V139.441V139.182V138.922V138.662V138.402V138.143L291.883 138.142L291.558 137.883V137.623V137.363V137.104V136.844L291.557 136.843L291.233 136.584V136.324V136.064V135.805L291.232 135.804L290.907 135.545V135.285L290.906 135.284L290.582 135.025V134.766L290.581 134.765L290.256 134.506V134.246L290.255 134.245L289.931 133.986V133.727L289.93 133.726L289.605 133.467L289.604 133.466L289.28 133.207L289.279 133.206L288.954 132.947L288.953 132.946L288.629 132.688L288.628 132.687L288.303 132.428L288.302 132.427L287.978 132.168L287.977 132.167L287.652 131.908L287.651 131.907H287.326L287.001 131.648L287 131.648L286.675 131.389L286.674 131.388L286.35 131.129L286.349 131.128H286.023L285.699 130.869L285.698 130.868H285.372L285.048 130.609L285.047 130.609H284.721L284.397 130.35L284.396 130.349H284.07H283.745L283.42 130.09L283.419 130.089H283.094H282.768H282.443L282.118 129.83L282.117 129.829H281.792L281.791 129.83V130.09V130.35V130.609V130.869V131.129V131.389V131.648V131.908V132.168V132.428V132.688V132.947V133.207V133.467V133.727V133.986V134.246V134.506V134.766V135.025V135.285V135.545V135.805V136.064V136.324V136.584V136.844V137.104V137.363V137.623V137.883V138.143V138.402V138.662V138.922V139.182V139.441V139.701V139.961V140.221V140.48V140.74V141V141.26V141.52V141.779V142.039V142.299V142.559V142.818V143.078V143.338V143.598V143.857V144.117V144.377V144.637V144.896V145.156V145.416V145.676V145.936V146.195V146.455V146.715V146.975V147.234V147.494V147.754V148.014V148.273V148.533L281.792 148.534H282.117H282.443L282.444 148.533Z" stroke="white"/>
<path d="M279.514 148.533L279.513 148.532L279.189 148.273V148.014V147.754V147.494V147.234V146.975V146.715V146.455V146.195V145.936V145.676V145.416V145.156V144.896V144.637V144.377V144.117V143.857V143.598V143.338V143.078V142.818V142.559V142.299V142.039V141.779V141.52V141.26V141V140.74V140.48V140.221V139.961V139.701V139.441V139.182V138.922V138.662V138.402V138.143V137.883V137.623V137.363V137.104V136.844V136.584V136.324V136.064V135.805V135.545V135.285V135.025V134.766V134.506V134.246V133.986V133.727V133.467V133.207V132.947V132.688V132.428V132.168V131.908V131.648V131.389L279.513 131.13L279.514 131.129V130.869V130.609V130.35V130.09L279.513 130.089H279.188L279.187 130.09L278.862 130.349H278.536H278.211L278.21 130.35L277.885 130.609H277.56L277.559 130.609L277.234 130.868H276.909L276.908 130.869L276.583 131.128H276.258L276.257 131.129L275.932 131.388H275.607L275.606 131.389L275.281 131.648H274.956L274.955 131.648L274.63 131.907L274.629 131.908L274.305 132.167L274.304 132.168L273.979 132.427H273.654L273.653 132.428L273.328 132.687L273.327 132.688L273.003 132.946L273.002 132.947L272.677 133.206L272.676 133.207L272.352 133.466L272.351 133.467L272.026 133.726L272.025 133.727L271.701 133.986L271.7 133.986V134.246L271.375 134.505L271.374 134.506V134.766L271.049 135.025L271.048 135.025L270.724 135.284L270.723 135.285V135.545L270.398 135.804L270.397 135.805V136.064V136.324L270.073 136.583L270.072 136.584V136.844V137.104L269.747 137.362L269.746 137.363V137.623V137.883V138.143V138.402V138.662V138.922V139.182V139.441V139.701V139.961V140.221V140.48V140.74V141V141.26V141.52L269.747 141.52L270.072 141.779V142.039V142.299V142.559L270.073 142.559L270.397 142.818V143.078L270.398 143.079L270.723 143.338V143.598L270.724 143.598L271.048 143.857V144.117L271.049 144.118L271.374 144.377V144.637L271.375 144.638L271.7 144.896L271.701 144.897L272.025 145.156L272.026 145.157L272.351 145.416V145.676L272.352 145.677L272.676 145.936L272.677 145.936L273.002 146.195L273.003 146.196L273.327 146.455L273.328 146.456L273.653 146.715L273.654 146.716L273.978 146.975L273.979 146.975H274.305L274.629 147.234L274.63 147.235L274.955 147.494L274.956 147.495H275.281L275.606 147.754L275.607 147.755H275.932L276.257 148.014L276.258 148.014H276.583L276.908 148.273L276.909 148.274H277.234H277.56L277.884 148.533L277.885 148.534H278.211H278.536H278.862H279.188H279.513L279.514 148.533Z" stroke="white"/>
<rect x="42.6904" y="99.5789" width="107.999" height="77.8421" fill="#454587"/>
<path fill-rule="evenodd" clip-rule="evenodd" d="M150.681 99.5789H41.9472V177.421H150.681V99.5789ZM41 98.7613V178.239H151.628V98.7613H41Z" fill="#DBDBDB"/>
<path fill-rule="evenodd" clip-rule="evenodd" d="M83.2603 95V98.7613H82.3212V95H83.2603Z" fill="#DBDBDB"/>
<path fill-rule="evenodd" clip-rule="evenodd" d="M83.2603 178.239V182H82.3212V178.239H83.2603Z" fill="#DBDBDB"/>
<path fill-rule="evenodd" clip-rule="evenodd" d="M90.3976 95V98.7613H89.4585V95H90.3976Z" fill="#DBDBDB"/>
<path fill-rule="evenodd" clip-rule="evenodd" d="M90.3976 178.239V182H89.4585V178.239H90.3976Z" fill="#DBDBDB"/>
<path fill-rule="evenodd" clip-rule="evenodd" d="M108.241 95V98.7613H107.302V95H108.241Z" fill="#DBDBDB"/>
<path fill-rule="evenodd" clip-rule="evenodd" d="M108.241 178.239V182H107.302V178.239H108.241Z" fill="#DBDBDB"/>
<path fill-rule="evenodd" clip-rule="evenodd" d="M126.648 95V98.7613H125.708V95H126.648Z" fill="#DBDBDB"/>
<path fill-rule="evenodd" clip-rule="evenodd" d="M126.648 178.239V182H125.708V178.239H126.648Z" fill="#DBDBDB"/>
<rect x="42.6904" y="108.9" width="107.999" height="59.1992" fill="#454587"/>
<path fill-rule="evenodd" clip-rule="evenodd" d="M150.681 108.9H41.9472V168.1H150.681V108.9ZM41 108.083V168.917H151.628V108.083H41Z" fill="#DBDBDB"/>
<path fill-rule="evenodd" clip-rule="evenodd" d="M103.545 104.812V108.573H102.606V104.812H103.545Z" fill="#DBDBDB"/>
<path fill-rule="evenodd" clip-rule="evenodd" d="M103.545 168.427V172.188H102.606V168.427H103.545Z" fill="#DBDBDB"/>
<path fill-rule="evenodd" clip-rule="evenodd" d="M121.201 104.812V108.573H120.262V104.812H121.201Z" fill="#DBDBDB"/>
<path fill-rule="evenodd" clip-rule="evenodd" d="M121.201 168.427V172.188H120.262V168.427H121.201Z" fill="#DBDBDB"/>
<path fill-rule="evenodd" clip-rule="evenodd" d="M139.607 104.812V108.573H138.668V104.812H139.607Z" fill="#DBDBDB"/>
<path fill-rule="evenodd" clip-rule="evenodd" d="M139.607 168.427V172.188H138.668V168.427H139.607Z" fill="#DBDBDB"/>
<path d="M82.3212 104.976H87.7681V108.083H82.3212V104.976Z" fill="#DBDBDB"/>
<path d="M82.3212 168.59H87.7681V171.697H82.3212V168.59Z" fill="#DBDBDB"/>
<path fill-rule="evenodd" clip-rule="evenodd" d="M118.195 114.461V118.222H117.256V114.461H118.195Z" fill="#DBDBDB"/>
<path fill-rule="evenodd" clip-rule="evenodd" d="M118.195 158.615V162.376H117.256V158.615H118.195Z" fill="#DBDBDB"/>
<path d="M65.7927 118.058L80.3576 118.058C85.5591 119.802 95.8473 126.337 95.8473 138.745C95.8473 151.054 85.5611 157.538 80.3582 159.269H65.7927V160.086H80.5283L80.6077 160.061C86.0118 158.295 96.7836 151.571 96.7836 138.745C96.7836 125.824 86.0145 119.047 80.6088 117.267L80.529 117.241L65.7927 117.241V118.058Z" fill="#DBDBDB"/>
<path d="M152.515 108.583C171.088 108.993 186 122.23 186 138.5C185.999 154.77 171.088 168.007 152.515 168.417L151.628 168.427L151 168.422C149.539 168.399 148.1 168.297 146.689 168.12L146.823 167.311C148.195 167.483 149.595 167.582 151.017 167.605L151.628 167.609L152.491 167.6C170.556 167.201 185.061 154.325 185.061 138.5C185.061 122.675 170.556 109.799 152.491 109.4L151.628 109.391C149.996 109.391 148.391 109.493 146.823 109.69L146.689 108.88C148.302 108.678 149.951 108.573 151.628 108.573L152.515 108.583ZM130.926 161.358C133.433 163.082 136.228 164.499 139.24 165.546L138.892 166.305C135.795 165.229 132.921 163.771 130.344 162L130.926 161.358ZM120.565 149.286C121.767 151.908 123.395 154.342 125.375 156.524L124.637 157.031C122.603 154.788 120.929 152.285 119.693 149.589L120.565 149.286ZM118.539 134.316C118.313 135.681 118.196 137.079 118.196 138.5C118.196 139.921 118.313 141.318 118.539 142.684L117.609 142.801C117.377 141.397 117.256 139.96 117.256 138.5C117.256 137.04 117.377 135.604 117.609 134.199L118.539 134.316ZM125.375 120.476C123.395 122.658 121.767 125.092 120.565 127.714L119.693 127.411C120.929 124.715 122.603 122.212 124.637 119.969L125.375 120.476ZM139.24 111.454C136.228 112.501 133.433 113.918 130.926 115.642L130.344 115C132.921 113.229 135.795 111.772 138.892 110.695L139.24 111.454Z" fill="#DBDBDB"/>
<rect width="109.488" height="79.6316" transform="matrix(-1 0 0 1 518.286 100.684)" fill="#454587"/>
<path fill-rule="evenodd" clip-rule="evenodd" d="M408.806 100.684H519.04V180.316H408.806V100.684ZM520 99.8477V181.152H407.846V99.8477H520Z" fill="#DBDBDB"/>
<path fill-rule="evenodd" clip-rule="evenodd" d="M477.157 96V99.8477H478.109V96H477.157Z" fill="#DBDBDB"/>
<path fill-rule="evenodd" clip-rule="evenodd" d="M477.157 181.152V185H478.109V181.152H477.157Z" fill="#DBDBDB"/>
<path fill-rule="evenodd" clip-rule="evenodd" d="M469.921 96V99.8477H470.873V96H469.921Z" fill="#DBDBDB"/>
<path fill-rule="evenodd" clip-rule="evenodd" d="M469.921 181.152V185H470.873V181.152H469.921Z" fill="#DBDBDB"/>
<path fill-rule="evenodd" clip-rule="evenodd" d="M451.832 96V99.8477H452.784V96H451.832Z" fill="#DBDBDB"/>
<path fill-rule="evenodd" clip-rule="evenodd" d="M451.832 181.152V185H452.784V181.152H451.832Z" fill="#DBDBDB"/>
<path fill-rule="evenodd" clip-rule="evenodd" d="M433.171 96V99.8477H434.123V96H433.171Z" fill="#DBDBDB"/>
<path fill-rule="evenodd" clip-rule="evenodd" d="M433.171 181.152V185H434.123V181.152H433.171Z" fill="#DBDBDB"/>
<rect width="109.488" height="60.5602" transform="matrix(-1 0 0 1 518.286 110.22)" fill="#454587"/>
<path fill-rule="evenodd" clip-rule="evenodd" d="M408.806 110.22H519.04V170.78H408.806V110.22ZM520 109.383V171.617H407.846V109.383H520Z" fill="#DBDBDB"/>
<path fill-rule="evenodd" clip-rule="evenodd" d="M456.592 106.038V109.885H457.544V106.038H456.592Z" fill="#DBDBDB"/>
<path fill-rule="evenodd" clip-rule="evenodd" d="M456.592 171.115V174.962H457.544V171.115H456.592Z" fill="#DBDBDB"/>
<path fill-rule="evenodd" clip-rule="evenodd" d="M438.693 106.038V109.885H439.645V106.038H438.693Z" fill="#DBDBDB"/>
<path fill-rule="evenodd" clip-rule="evenodd" d="M438.693 171.115V174.962H439.645V171.115H438.693Z" fill="#DBDBDB"/>
<path fill-rule="evenodd" clip-rule="evenodd" d="M420.033 106.038V109.885H420.985V106.038H420.033Z" fill="#DBDBDB"/>
<path fill-rule="evenodd" clip-rule="evenodd" d="M420.033 171.115V174.962H420.985V171.115H420.033Z" fill="#DBDBDB"/>
<path d="M478.109 106.205H472.587V109.383H478.109V106.205Z" fill="#DBDBDB"/>
<path d="M478.109 171.282H472.587V174.461H478.109V171.282Z" fill="#DBDBDB"/>
<path fill-rule="evenodd" clip-rule="evenodd" d="M441.74 115.908V119.756H442.692V115.908H441.74Z" fill="#DBDBDB"/>
<path fill-rule="evenodd" clip-rule="evenodd" d="M441.74 161.077V164.925H442.692V161.077H441.74Z" fill="#DBDBDB"/>
<path d="M494.866 119.588L480.1 119.588C474.827 121.372 464.396 128.058 464.396 140.751C464.396 153.342 474.824 159.976 480.099 161.746H494.866V162.583H479.927L479.846 162.556C474.368 160.75 463.447 153.871 463.447 140.751C463.447 127.532 474.365 120.599 479.845 118.779L479.926 118.752L494.866 118.752V119.588Z" fill="#DBDBDB"/>
<path d="M407.846 109.885C388.601 109.885 373.001 123.592 373 140.5C373 157.143 388.117 170.686 406.947 171.105L407.846 171.115L408.482 171.11C409.963 171.087 411.422 170.982 412.853 170.801L412.718 169.973C411.128 170.174 409.501 170.278 407.846 170.278C389.127 170.278 373.953 156.946 373.953 140.5C373.953 124.311 388.657 111.14 406.971 110.732L407.846 110.722C409.501 110.722 411.128 110.826 412.718 111.027L412.853 110.199C411.218 109.992 409.546 109.885 407.846 109.885ZM428.833 163.884C426.292 165.647 423.458 167.097 420.405 168.168L420.757 168.944C423.897 167.843 426.811 166.353 429.423 164.541L428.833 163.884ZM439.337 151.534C438.119 154.216 436.469 156.707 434.462 158.939L435.209 159.458C437.272 157.163 438.968 154.602 440.221 151.844L439.337 151.534ZM441.392 136.219C441.621 137.617 441.74 139.046 441.74 140.5C441.74 141.953 441.621 143.383 441.392 144.78L442.334 144.899C442.57 143.462 442.692 141.993 442.692 140.5C442.692 139.006 442.57 137.537 442.334 136.1L441.392 136.219ZM434.462 122.061C436.469 124.294 438.119 126.784 439.337 129.466L440.221 129.156C438.968 126.398 437.272 123.837 435.209 121.543L434.462 122.061ZM420.405 112.833C423.458 113.903 426.292 115.353 428.833 117.116L429.423 116.46C426.811 114.647 423.897 113.157 420.757 112.056L420.405 112.833Z" fill="#DBDBDB"/>
<path d="M41 44.7106H119.865C119.901 44.7221 119.951 44.7379 120.013 44.758C120.163 44.8064 120.388 44.8796 120.68 44.9784C121.266 45.1759 122.127 45.4752 123.224 45.8815C125.419 46.694 128.556 47.9341 132.323 49.6418C139.856 53.0577 149.902 58.3428 159.946 65.8179C180.031 80.765 200.107 104.463 200.107 139.5C200.107 174.537 180.031 198.235 159.946 213.182C149.902 220.657 139.856 225.942 132.323 229.358C128.556 231.066 125.419 232.306 123.224 233.119C122.127 233.525 121.266 233.824 120.68 234.022C120.388 234.12 120.163 234.194 120.013 234.242C119.951 234.262 119.901 234.278 119.865 234.289H41V235H120.033L120.111 234.976L119.95 234.645C120.111 234.976 120.112 234.976 120.112 234.976L120.127 234.971C120.137 234.968 120.153 234.963 120.172 234.957C120.212 234.944 120.271 234.926 120.348 234.901C120.503 234.851 120.732 234.776 121.029 234.676C121.624 234.475 122.495 234.173 123.602 233.763C125.815 232.943 128.975 231.694 132.765 229.975C140.345 226.539 150.45 221.222 160.557 213.701C180.774 198.655 201 174.781 201 139.5C201 104.219 180.774 80.3448 160.557 65.299C150.45 57.7776 140.345 52.4611 132.765 49.0245C128.975 47.3061 125.815 46.0572 123.602 45.2373C122.495 44.8274 121.624 44.5247 121.029 44.3241C120.732 44.2239 120.503 44.1492 120.348 44.0993C120.271 44.0744 120.212 44.0557 120.172 44.0432C120.153 44.0369 120.137 44.0322 120.127 44.029L120.115 44.0254L120.112 44.0244C120.112 44.0244 120.111 44.024 119.95 44.3553L120.111 44.024L120.033 44H41V44.7106Z" fill="#DBDBDB"/>
<path fill-rule="evenodd" clip-rule="evenodd" d="M41 22H520V258H41V22ZM280.083 23.3828H185.251V37.3247H184.416V23.3828H42.5042V87.8961H46.3426V88.6623H42.5042V190.571H46.3426V191.338H42.5042V256.617H184.416V242.675H185.251V256.617H280.083L280.083 23.3828ZM280.917 23.3828H375.749V37.3247H376.584V23.3828H518.496V87.8961H514.657V88.6623H518.496V190.571H514.657V191.338H518.496V256.617H376.584V242.675H375.749V256.617H280.917L280.917 23.3828Z" fill="white"/>
</svg>
